<svg xmlns="http://www.w3.org/2000/svg" xmlns:xlink="http://www.w3.org/1999/xlink" width="231" height="47.648" viewBox="0 0 231 47.648"><defs><clipPath id="a"><path d="M71.358,64.988a18.914,18.914,0,1,1-1.9-22.176h0A2.473,2.473,0,0,0,73.2,39.575s0,0,0-.006a23.165,23.165,0,0,0-5.02-4.35A23.825,23.825,0,1,0,71.1,72.911c7.985-7.792,5.652-18.24-1.942-13.131,2.919-1.819,3.858,2.506,2.2,5.208" transform="translate(-31.373 -31.37)" fill="none"/></clipPath></defs><g transform="translate(-31.373 -31.37)"><g transform="translate(95.223 36.747)"><path d="M1468.938,80.873V77.566h-19.652V76.151a4.159,4.159,0,0,1,1.51-3.354,3.981,3.981,0,0,1,4.506,0,3.83,3.83,0,0,1,1.292,1.917h0l2.953-2.485a6.789,6.789,0,0,0-2.023-2.336,7.483,7.483,0,0,0-11.956,6.257v1.415h-4.041v3.308h4.041V96.591h3.716V80.873h7.522V90.9a6.065,6.065,0,1,0,12.13,0V88.285h-3.719V90.9h0a2.347,2.347,0,1,1-4.694,0h0V80.873h8.411Z" transform="translate(-1301.79 -68.61)"/><path d="M1188.031,137.713a12.678,12.678,0,0,0-5.483-1.793,8.254,8.254,0,0,1-3.191-.889,1.649,1.649,0,0,1-.744-1.46,1.627,1.627,0,0,1,.849-1.463,5.451,5.451,0,0,1,2.847-.585,10.25,10.25,0,0,1,5.32,1.374l.2.121,1.693-2.866-.157-.127a8.212,8.212,0,0,0-2.768-1.33,13.6,13.6,0,0,0-3.925-.537,9.227,9.227,0,0,0-5.684,1.6,5.036,5.036,0,0,0-2.151,4.167,5.154,5.154,0,0,0,.559,2.443,4.4,4.4,0,0,0,1.61,1.705,9.183,9.183,0,0,0,2.177.97,15.476,15.476,0,0,0,2.625.515,9.06,9.06,0,0,1,3.521.95,1.771,1.771,0,0,1,.908,1.566,2,2,0,0,1-.982,1.756,6.14,6.14,0,0,1-3.331.7,8.689,8.689,0,0,1-2.493-.306,9.035,9.035,0,0,1-2.851-1.52l-2.222,2.708.162.15a8.943,8.943,0,0,0,2.8,1.626,12.663,12.663,0,0,0,4.606.723,9.527,9.527,0,0,0,5.888-1.647,5.518,5.518,0,0,0,2.2-4.624,4.509,4.509,0,0,0-1.979-3.933" transform="translate(-1073.193 -119.562)"/><path d="M923.971,78.336h-4.079a28,28,0,0,1-8.047,8.479v-17.3l-3.715,0V97.361l3.715,0V90.876a27.687,27.687,0,0,0,2.717-1.731l5.8,8.213h4.7l-7.671-10.523a34.223,34.223,0,0,0,6.585-8.5" transform="translate(-845.399 -69.38)"/><path d="M624.386,136.425a5.7,5.7,0,0,1,1.786-3.142,5.811,5.811,0,0,1,4.074-1.432,4.984,4.984,0,0,1,3.63,1.337,5.654,5.654,0,0,1,1.564,3.237H624.388Zm10.464-6.869a9.056,9.056,0,0,0-4.6-1.175,10.059,10.059,0,0,0-5.065,1.272,8.9,8.9,0,0,0-3.458,3.533,10.451,10.451,0,0,0-1.214,5.042,10.152,10.152,0,0,0,1.288,5.088,9.274,9.274,0,0,0,3.572,3.523,11.049,11.049,0,0,0,9.34.44A9.934,9.934,0,0,0,638,144.933l.422-.453-2.537-2.28-.407.455a6.1,6.1,0,0,1-4.837,1.982,6.5,6.5,0,0,1-4.447-1.523,5.493,5.493,0,0,1-1.871-3.315h14.615l.077-.521a11.021,11.021,0,0,0,.139-1.578,10.134,10.134,0,0,0-1.13-4.822,8.25,8.25,0,0,0-3.176-3.319" transform="translate(-599.304 -119.751)"/><path d="M772.651,132.646a6.642,6.642,0,0,1,3.23-.785,6.95,6.95,0,0,1,2.554.453,5.856,5.856,0,0,1,2.095,1.473l.4.423,2.711-2.313-.433-.466a9.194,9.194,0,0,0-3.31-2.285,10.633,10.633,0,0,0-3.982-.755,10.38,10.38,0,0,0-5.091,1.268,9.363,9.363,0,0,0-3.605,3.52,10.57,10.57,0,0,0,0,10.181,9.344,9.344,0,0,0,3.605,3.52,10.369,10.369,0,0,0,5.091,1.268,10.242,10.242,0,0,0,3.991-.793A9.33,9.33,0,0,0,783.209,145l.423-.466-2.668-2.268-.4.41a5.97,5.97,0,0,1-4.621,1.968,6.8,6.8,0,0,1-3.282-.787,5.585,5.585,0,0,1-2.239-2.212,6.871,6.871,0,0,1-.814-3.409,6.753,6.753,0,0,1,.814-3.375,5.627,5.627,0,0,1,2.225-2.213" transform="translate(-723.712 -119.759)"/><path d="M1038.876,138.226a6.726,6.726,0,0,1-.816,3.342,5.862,5.862,0,0,1-2.234,2.252,6.5,6.5,0,0,1-3.254.814,6.585,6.585,0,0,1-3.273-.816,5.817,5.817,0,0,1-2.248-2.251,7.263,7.263,0,0,1,0-6.686,5.736,5.736,0,0,1,2.229-2.233,6.589,6.589,0,0,1,3.259-.8,6.7,6.7,0,0,1,3.277.8,5.7,5.7,0,0,1,2.244,2.232,6.726,6.726,0,0,1,.816,3.342m-1.178-8.577a10.506,10.506,0,0,0-5.157-1.268,10.389,10.389,0,0,0-5.124,1.268,9.254,9.254,0,0,0-3.591,3.523,10.006,10.006,0,0,0-1.288,5.053,10.217,10.217,0,0,0,1.288,5.1,9.245,9.245,0,0,0,3.573,3.542,11.023,11.023,0,0,0,10.3-.017,9.34,9.34,0,0,0,3.588-3.556,10.178,10.178,0,0,0,1.286-5.1,9.866,9.866,0,0,0-1.289-5.04,9.278,9.278,0,0,0-3.589-3.505" transform="translate(-943.291 -119.751)"/><path d="M1313.247,138.243a6.725,6.725,0,0,1-.816,3.342,5.864,5.864,0,0,1-2.233,2.252,6.5,6.5,0,0,1-3.254.814,6.585,6.585,0,0,1-3.273-.816,5.818,5.818,0,0,1-2.248-2.251,7.261,7.261,0,0,1,0-6.685,5.713,5.713,0,0,1,2.229-2.232,6.589,6.589,0,0,1,3.258-.8,6.7,6.7,0,0,1,3.277.8,5.7,5.7,0,0,1,2.244,2.232,6.726,6.726,0,0,1,.816,3.342m2.41-5.072a9.3,9.3,0,0,0-3.589-3.505,10.506,10.506,0,0,0-5.157-1.268,10.389,10.389,0,0,0-5.124,1.268,9.254,9.254,0,0,0-3.591,3.523,10.006,10.006,0,0,0-1.288,5.053,10.232,10.232,0,0,0,1.286,5.1,9.243,9.243,0,0,0,3.573,3.54,11.023,11.023,0,0,0,10.3-.017,9.342,9.342,0,0,0,3.588-3.556,10.165,10.165,0,0,0,1.288-5.1,9.857,9.857,0,0,0-1.289-5.039" transform="translate(-1178.049 -119.768)"/><path d="M488.372,128.264v2.063a6.956,6.956,0,0,0-5.532-2.437,9.529,9.529,0,0,0-5.485,1.535,9.458,9.458,0,0,0,0,14.972,9.518,9.518,0,0,0,5.485,1.535,6.954,6.954,0,0,0,5.532-2.437v2.114h0a5.563,5.563,0,0,1-1.657,4.159,5.742,5.742,0,0,1-4.278,1.457,7.78,7.78,0,0,1-6.186-2.509l-.1-.118-2.518,2.561.085.1c2.01,2.268,4.943,3.417,8.722,3.417a9.786,9.786,0,0,0,6.885-2.477A8.139,8.139,0,0,0,492,145.608h0V128.247l-3.625.014Zm-2.226,13.552a5.858,5.858,0,0,1-6.612,0,6.535,6.535,0,0,1,0-9.809,5.858,5.858,0,0,1,6.612,0,6.535,6.535,0,0,1,0,9.809Z" transform="translate(-473.63 -119.331)"/></g><g transform="translate(31.373 31.37)"><path d="M130.934,136.14c7.987-7.792,5.649-18.24-1.943-13.132-.539.346-.833.554-2.326,1.579-3.173,2.183-4.72,3.273-6.329,2.96h-.006a2.689,2.689,0,0,1-1.754-1.175c-.234-.359-.642-.928-1.129-1.585a3.375,3.375,0,0,0-5.6.269l-1.712,2.841a2.576,2.576,0,0,1-3.176,1.1,2.53,2.53,0,0,1-1.194-3.64s.006-.007.006-.01a2.214,2.214,0,0,1,1.24-.94c1.494-.472,6.094-2.145,5.368-4.666-.667-2.323-7.095-2.436-8.722-2.656a2.615,2.615,0,0,1-2.362-2.756,2.449,2.449,0,0,1,3.048-2.275c2.558.706,7.2,5.449,8.97,4.3s-1.662-6.237-2.213-7.424a2.554,2.554,0,0,1,.912-3.28,2.47,2.47,0,0,1,3.856,2.108c.02,2.5.165,7.287,1.719,7.588,1.239.241,1.782-.608,3.251-3.881.518-1.164,1.782-2.57,3.647-1.644a2.346,2.346,0,0,1,.745,3.7c-1.071,1.324-2.519,1.666-4.081,2.463a2.659,2.659,0,0,0-1.171,3.988,2.916,2.916,0,0,0,4.074.427c1.478-1.08,2.742-2.144,4.008-2.935,3.494-2.181,6.342-2.964,8.665-1.439,2.693,1.767,1.936,5.659,1.685,6.944a23.68,23.68,0,0,1-7.479,13.171" transform="translate(-91.203 -94.599)" fill="#61c2d7"/><path d="M130.939,136.144c7.987-7.793,5.652-18.24-1.943-13.132-.536.348-.833.556-2.323,1.579-3.173,2.183-4.72,3.273-6.328,2.96h-.007a2.683,2.683,0,0,1-1.751-1.175c-.232-.359-.648-.928-1.133-1.585a3.372,3.372,0,0,0-5.593.269l-1.712,2.841a2.577,2.577,0,0,1-3.176,1.1,2.532,2.532,0,0,1-1.2-3.64c.006,0,.006-.007.007-.01a2.214,2.214,0,0,1,1.24-.94c1.494-.472,6.091-2.145,5.365-4.666-.667-2.323-7.095-2.436-8.719-2.655a2.612,2.612,0,0,1-2.362-2.756,2.446,2.446,0,0,1,3.048-2.275c2.555.7,7.2,5.449,8.97,4.3s-1.665-6.236-2.216-7.424a2.553,2.553,0,0,1,.915-3.279,2.468,2.468,0,0,1,3.853,2.106c.022,2.5.165,7.287,1.719,7.588,1.239.241,1.782-.609,3.251-3.881.521-1.164,1.784-2.57,3.65-1.643a2.344,2.344,0,0,1,.742,3.7c-1.067,1.324-2.516,1.666-4.077,2.463a2.66,2.66,0,0,0-1.174,3.988,2.916,2.916,0,0,0,4.073.427c1.478-1.08,2.742-2.144,4.009-2.935,3.494-2.182,6.339-2.964,8.662-1.439,2.693,1.767,1.936,5.659,1.685,6.944a23.663,23.663,0,0,1-7.479,13.171" transform="translate(-91.211 -94.603)" fill="#5ec3d5"/><g clip-path="url(#a)"><image width="56.884" height="56.884" transform="translate(-4.619 -4.617)" xlink:href="logo1light_img_ext-image.png"/></g></g></g></svg>