<svg aria-hidden="true" style="position: absolute; width: 0; height: 0; overflow: hidden;" version="1.1" xmlns="http://www.w3.org/2000/svg" xmlns:xlink="http://www.w3.org/1999/xlink">
<defs>
<symbol id="icozaux1-like" viewBox="0 0 36 32">
<path d="M34.402 6.959c-0.531-1.229-1.296-2.342-2.252-3.277-0.957-0.938-2.086-1.684-3.325-2.197-1.284-0.534-2.662-0.807-4.053-0.804-1.951 0-3.855 0.534-5.51 1.544-0.396 0.241-0.772 0.507-1.128 0.796-0.356-0.289-0.732-0.554-1.128-0.796-1.655-1.009-3.559-1.544-5.51-1.544-1.405 0-2.767 0.269-4.053 0.804-1.243 0.515-2.363 1.255-3.325 2.197-0.958 0.935-1.723 2.048-2.252 3.277-0.55 1.279-0.831 2.636-0.831 4.034 0 1.318 0.269 2.692 0.804 4.089 0.447 1.168 1.089 2.379 1.908 3.602 1.298 1.936 3.084 3.954 5.3 6.001 3.673 3.392 7.311 5.736 7.465 5.831l0.938 0.602c0.416 0.265 0.95 0.265 1.366 0l0.938-0.602c0.154-0.099 3.788-2.438 7.465-5.831 2.217-2.047 4.002-4.065 5.3-6.001 0.819-1.223 1.465-2.434 1.908-3.602 0.534-1.397 0.804-2.771 0.804-4.089 0.004-1.397-0.277-2.755-0.827-4.034zM18.133 27.986c0 0-14.092-9.029-14.092-16.993 0-4.034 3.337-7.303 7.454-7.303 2.894 0 5.403 1.615 6.638 3.974 1.235-2.359 3.745-3.974 6.638-3.974 4.117 0 7.454 3.27 7.454 7.303 0 7.964-14.092 16.993-14.092 16.993z"></path>
</symbol>
<symbol id="icozaux1-reply" viewBox="0 0 34 32">
<path d="M0.267 6.533c0-1.591 0.632-3.117 1.757-4.243s2.651-1.757 4.243-1.757h21.6c1.591 0 3.117 0.632 4.243 1.757s1.757 2.651 1.757 4.243v12c0 0.788-0.155 1.568-0.457 2.296s-0.743 1.389-1.301 1.946c-0.557 0.557-1.219 0.999-1.946 1.301s-1.508 0.457-2.296 0.457h-9.149l-7.351 6.432c-0.34 0.297-0.759 0.49-1.206 0.556s-0.903 0.002-1.315-0.185c-0.411-0.187-0.76-0.488-1.005-0.868s-0.375-0.822-0.375-1.274v-4.661h-1.2c-1.591 0-3.117-0.632-4.243-1.757s-1.757-2.651-1.757-4.243v-12zM6.267 2.933c-0.955 0-1.87 0.379-2.546 1.054s-1.054 1.591-1.054 2.546v12c0 0.955 0.379 1.87 1.054 2.546s1.591 1.054 2.546 1.054h3.6v6.955l7.949-6.955h10.051c0.955 0 1.87-0.379 2.546-1.054s1.055-1.591 1.055-2.546v-12c0-0.955-0.379-1.87-1.055-2.546s-1.591-1.054-2.546-1.054h-21.6z"></path>
</symbol>
<symbol id="icozaux1-link" viewBox="0 0 32 32">
<path d="M17.72 12.387l-5.333 5.333c-0.125 0.124-0.224 0.271-0.292 0.434s-0.103 0.337-0.103 0.513c0 0.176 0.035 0.35 0.103 0.513s0.167 0.31 0.292 0.434c0.124 0.125 0.271 0.224 0.434 0.292s0.337 0.103 0.513 0.103c0.176 0 0.35-0.035 0.513-0.103s0.31-0.167 0.434-0.292l5.333-5.333c0.251-0.251 0.392-0.592 0.392-0.947s-0.141-0.696-0.392-0.947c-0.251-0.251-0.591-0.392-0.947-0.392s-0.696 0.141-0.947 0.392z"></path>
<path d="M16.373 23.2l-1.707 1.693c-0.958 0.987-2.246 1.587-3.618 1.686s-2.733-0.312-3.822-1.152c-0.576-0.474-1.045-1.064-1.379-1.731s-0.523-1.397-0.557-2.142c-0.034-0.745 0.089-1.489 0.36-2.184s0.686-1.325 1.216-1.849l1.893-1.907c0.125-0.124 0.224-0.271 0.292-0.434s0.103-0.337 0.103-0.513c0-0.176-0.035-0.35-0.103-0.513s-0.167-0.31-0.292-0.434c-0.124-0.125-0.271-0.224-0.434-0.292s-0.337-0.103-0.513-0.103c-0.176 0-0.35 0.035-0.513 0.103s-0.31 0.167-0.434 0.292l-1.693 1.707c-1.426 1.381-2.303 3.233-2.468 5.212s0.395 3.95 1.574 5.548c0.7 0.908 1.585 1.656 2.596 2.196s2.126 0.858 3.27 0.933 2.291-0.093 3.364-0.495c1.074-0.401 2.050-1.027 2.863-1.835l1.893-1.893c0.251-0.251 0.392-0.592 0.392-0.947s-0.141-0.696-0.392-0.947c-0.251-0.251-0.592-0.392-0.947-0.392s-0.696 0.141-0.947 0.392v0zM26.213 4.293c-1.609-1.191-3.596-1.756-5.591-1.59s-3.861 1.054-5.249 2.496l-1.44 1.467c-0.165 0.12-0.302 0.273-0.404 0.449s-0.165 0.372-0.187 0.574c-0.021 0.202 0 0.407 0.063 0.601s0.165 0.372 0.301 0.523c0.124 0.125 0.271 0.224 0.434 0.292s0.337 0.103 0.513 0.103c0.176 0 0.35-0.035 0.513-0.103s0.31-0.167 0.434-0.292l1.733-1.747c0.953-0.992 2.239-1.595 3.611-1.693s2.731 0.315 3.816 1.16c0.58 0.474 1.054 1.066 1.39 1.735s0.527 1.403 0.561 2.151c0.034 0.748-0.090 1.496-0.364 2.193s-0.692 1.329-1.227 1.854l-1.893 1.907c-0.125 0.124-0.224 0.271-0.292 0.434s-0.103 0.337-0.103 0.513c0 0.176 0.035 0.35 0.103 0.513s0.167 0.31 0.292 0.434c0.124 0.125 0.271 0.224 0.434 0.292s0.337 0.103 0.513 0.103 0.35-0.035 0.513-0.103c0.162-0.068 0.31-0.167 0.434-0.292l1.893-1.893c0.806-0.813 1.429-1.788 1.829-2.861s0.568-2.217 0.493-3.36c-0.076-1.142-0.393-2.255-0.931-3.265s-1.285-1.894-2.191-2.594v0z"></path>
</symbol>
<symbol id="icozaux1-menuarrow" viewBox="0 0 12 32">
<path d="M0.297 0l11.703 16.5-11.703 15.5v-32z"></path>
</symbol>
<symbol id="icozaux1-littlearrow" viewBox="0 0 24 32">
<path d="M3.186 2.071l17.628 13.578-17.628 12.755v-26.333z"></path>
</symbol>
<symbol id="icozaux1-tw-share" viewBox="0 0 32 32">
<path d="M27.306 27.311c6.247-6.247 6.247-16.375 0-22.622s-16.375-6.247-22.622 0c-6.247 6.247-6.247 16.375 0 22.622s16.375 6.247 22.622 0z"></path>
<path fill="#fff" style="fill: var(--color2, #fff)" d="M16.174 13.157c-0.79-4.149 4.205-6.625 7.144-3.629 0 0 1.316-0.37 2.469-1.103 0 0-0.42 1.416-1.836 2.313 0 0 1.58-0.213 2.263-0.633 0 0-0.683 1.416-1.943 1.943 0.683 9.521-9.564 15.299-17.868 10.567 0 0 4.099 0.213 5.835-1.786 0 0-2.526 0.213-3.786-2.839 0 0 0.946 0.37 1.893-0.107 0 0-2.946-0.47-3.209-3.992 0 0 0.946 0.733 2 0.47 0 0-3.259-1.943-1.416-5.465-0.007 0.007 3.465 4.419 8.454 4.262z"></path>
</symbol>
<symbol id="icozaux1-ig-share" viewBox="0 0 32 32">
<path fill="#acacac" style="fill: var(--color1, #acacac)" d="M27.306 27.311c6.247-6.247 6.247-16.375 0-22.622s-16.375-6.247-22.622 0c-6.247 6.247-6.247 16.375 0 22.622s16.375 6.247 22.622 0z"></path>
<path fill="#fff" style="fill: var(--color2, #fff)" d="M11.293 5.807c-3.024 0-5.508 2.491-5.508 5.515v9.357c0 3.017 2.483 5.508 5.508 5.508h9.414c3.017 0 5.508-2.483 5.508-5.508v-9.364c0-3.017-2.483-5.508-5.508-5.508h-9.414zM21.483 9.364c-0.676 0-1.167 0.541-1.167 1.167 0 0.633 0.484 1.167 1.167 1.167 0.633 0 1.167-0.534 1.167-1.167s-0.534-1.167-1.167-1.167zM15.975 10.439c-3.024 0-5.508 2.54-5.508 5.558 0 3.067 2.483 5.557 5.508 5.557h0.050c3.024 0 5.557-2.483 5.557-5.557 0-3.024-2.533-5.558-5.557-5.558h-0.050zM15.975 12.339h0.050c2 0 3.658 1.658 3.658 3.658 0 2.049-1.658 3.707-3.658 3.707h-0.050c-2 0-3.658-1.658-3.658-3.707 0-2 1.658-3.658 3.658-3.658zM11.343 7.564h9.315c2.099 0 3.807 1.708 3.807 3.807v9.265c0 2.099-1.708 3.807-3.807 3.807h-9.315c-2.099 0-3.807-1.708-3.807-3.807v-9.272c0-2.092 1.708-3.8 3.807-3.8z"></path>
</symbol>
<symbol id="icozaux1-fb-share" viewBox="0 0 32 32">
<path fill="#acacac" style="fill: var(--color1, #acacac)" d="M27.306 27.311c6.247-6.247 6.247-16.375 0-22.622s-16.375-6.247-22.622 0c-6.247 6.247-6.247 16.375 0 22.622s16.375 6.247 22.622 0z"></path>
<path fill="#fff" style="fill: var(--color2, #fff)" d="M13.001 28.072h4.362v-10.069h3.223l0.648-4.070h-3.871v-3.074c0-1.139 1.089-1.786 2.135-1.786h1.886v-3.373l-3.373-0.149c-3.223-0.199-5.010 2.334-5.010 5.358v3.024h-3.672v4.070h3.672v10.069z"></path>
</symbol>
<symbol id="icozaux1-ln-share" viewBox="0 0 32 32">
<path fill="#acacac" style="fill: var(--color1, #acacac)" d="M27.306 27.311c6.247-6.247 6.247-16.375 0-22.622s-16.375-6.247-22.622 0c-6.247 6.247-6.247 16.375 0 22.622s16.375 6.247 22.622 0z"></path>
<path fill="#fff" style="fill: var(--color2, #fff)" d="M7.102 12.787h3.601v12.097h-3.601v-12.097zM8.881 6.646c1.203 0 2.177 0.982 2.177 2.178 0 1.203-0.982 2.177-2.177 2.177-1.203 0-2.135-0.982-2.135-2.177s0.932-2.178 2.135-2.178zM12.837 12.787h3.558v1.694c0.754-1.11 2-1.822 3.423-1.822h0.982c2.27 0 4.092 1.871 4.092 4.092v8.133h-3.558v-6.54c-0.043-1.38-0.982-2.448-2.355-2.448-1.38 0-2.533 1.067-2.583 2.448v6.54h-3.558v-12.097z"></path>
</symbol>
<symbol id="icozaux1-wh-share" viewBox="0 0 32 32">
<path fill="#acacac" style="fill: var(--color1, #acacac)" d="M27.306 27.311c6.247-6.247 6.247-16.375 0-22.622s-16.375-6.247-22.622 0c-6.247 6.247-6.247 16.375 0 22.622s16.375 6.247 22.622 0z"></path>
<path fill="#fff" style="fill: var(--color2, #fff)" d="M12.403 11.378c0.562-0.363 0.925-0.1 1.131 0.463l0.512 1.338c0 0 0.363 0.719-0.562 1.437-0.156 0.1-0.156 0.1-0.1 0.363 0.206 0.619 1.025 2.469 3.65 3.907 0.256 0.157 0.306 0.157 0.562-0.050 0.206-0.206 0.463-0.463 0.669-0.669 0.462-0.413 0.719-0.562 1.131-0.256 0.306 0.206 0.619 0.463 0.925 0.669 0.306 0.256 0.825 0.562 0.306 1.181l-0.462 0.562c-0.669 0.825-1.231 0.875-2.106 0.669-3.337-0.875-5.807-3.238-6.888-6.575-0.363-1.295 0.149-2.37 1.231-3.038zM15.996 5.878c5.6 0 10.119 4.519 10.119 10.119s-4.519 10.119-10.119 10.119c-1.544 0-2.982-0.306-4.262-0.925l-5.394 0.925 0.719-5.337-0.050-0.1c-0.719-1.388-1.131-2.982-1.131-4.675 0-5.607 4.519-10.126 10.119-10.126zM9.627 23.859l2.313-0.413c1.231 0.669 2.569 1.025 4.056 1.025 4.675 0 8.475-3.8 8.475-8.475s-3.8-8.475-8.475-8.475c-4.675 0-8.475 3.8-8.475 8.475 0 1.694 0.512 3.238 1.338 4.576l-0.1 0.768-0.206 1.544-0.157 1.181 1.231-0.206z"></path>
</symbol>
<symbol id="icozaux1-videoplay" viewBox="0 0 32 32">
<path d="M25.917 14.678c0 6.208-5.032 11.24-11.24 11.24s-11.24-5.032-11.24-11.24c0-6.207 5.032-11.24 11.24-11.24s11.24 5.032 11.24 11.24z"></path>
<path fill="#fff" style="fill: var(--color2, #fff)" d="M19.461 14.222c0.346 0.205 0.346 0.706 0 0.911l-7.159 4.23c-0.353 0.208-0.798-0.046-0.798-0.455v-8.46c0-0.41 0.445-0.664 0.798-0.455l7.159 4.23z"></path>
</symbol>
<symbol id="icozaux1-Download" viewBox="0 0 22 32">
<path d="M20.553 29.189h-19.147c-0.789 0-1.405 0.629-1.405 1.405 0 0.789 0.616 1.406 1.405 1.406h19.147c0.771 0 1.405-0.616 1.405-1.406 0-0.777-0.635-1.405-1.405-1.405z"></path>
<path d="M10.467 26.082c0.142 0.166 0.339 0.265 0.549 0.265h0.012c0.21 0 0.407-0.111 0.536-0.284l9.555-12.292c0.166-0.222 0.197-0.505 0.086-0.746-0.13-0.24-0.364-0.394-0.635-0.394h-4.593v-11.928c0-0.197-0.086-0.364-0.21-0.505-0.142-0.129-0.308-0.197-0.493-0.197h-9.037c-0.185 0-0.364 0.068-0.493 0.21-0.129 0.129-0.21 0.308-0.21 0.493l0.012 12.643-4.118-0.154c-0.284 0-0.536 0.142-0.647 0.394-0.129 0.24-0.099 0.549 0.086 0.758l9.598 11.737z"></path>
</symbol>
<symbol id="icozaux1-Print" viewBox="0 0 32 32">
<path d="M2.783 10.983c-1.479 0-2.783 1.055-2.783 2.466v11.87c0 1.411 1.304 2.46 2.783 2.46h4.907c0.852 0 0.852-1.28 0-1.28h-4.907c-0.89 0-1.498-0.574-1.498-1.186v-11.863c0-0.612 0.608-1.186 1.498-1.186h26.435c0.89 0 1.498 0.574 1.498 1.186v11.87c0 0.612-0.608 1.186-1.498 1.186h-5.058c-0.852 0-0.852 1.28 0 1.28h5.058c1.479 0 2.783-1.049 2.783-2.46v-11.876c0-1.411-1.304-2.466-2.783-2.466h-26.435z"></path>
<path d="M9.307 0c-1.047 0-1.799 0.943-1.799 1.979v9.085c-0.019 0.362 0.276 0.668 0.639 0.668s0.658-0.306 0.639-0.668v-9.085c0-0.45 0.276-0.706 0.514-0.706h9.651l4.249 4.408v5.382c0 0.35 0.288 0.637 0.646 0.637 0.351 0 0.639-0.287 0.639-0.637v-5.638c0-0.162-0.063-0.325-0.176-0.443l-4.613-4.789c-0.119-0.125-0.288-0.194-0.464-0.194h-9.927z"></path>
<path d="M17.704 0.318v4.564c-0.012 0.506 0.075 0.993 0.426 1.336 0.351 0.35 0.821 0.418 1.266 0.418h4.45v-1.28l-4.45-0.006c-0.307 0-0.376-0.056-0.37-0.050 0.012 0.006-0.056-0.056-0.050-0.4v-4.583h-1.272z"></path>
<path d="M8.141 22.21c-0.351 0.006-0.633 0.3-0.633 0.649v7.162c0 1.036 0.752 1.979 1.799 1.979h13.387c1.040 0 1.799-0.943 1.799-1.979v-7.162c0-0.855-1.285-0.855-1.285 0v7.162c0 0.45-0.276 0.706-0.514 0.706h-13.387c-0.238 0-0.514-0.256-0.514-0.706v-7.162c0.006-0.362-0.288-0.656-0.652-0.649z"></path>
<path d="M4.888 21.673c-0.364-0.019-0.671 0.275-0.671 0.637s0.307 0.656 0.671 0.637h22.23c0.363 0.019 0.671-0.275 0.671-0.637s-0.307-0.656-0.671-0.637h-22.23z"></path>
<path d="M26.002 14.811c-0.859 0-0.859 1.28 0 1.28h1.116c0.859 0 0.859-1.28 0-1.28h-1.116z"></path>
</symbol>
<symbol id="icozaux1-menu" viewBox="0 0 42 32">
<path d="M0 25.6h41.6v6.4h-41.6v-6.4z"></path>
<path d="M0 12.8h41.6v6.4h-41.6v-6.4z"></path>
<path d="M0 0h41.6v6.4h-41.6v-6.4z"></path>
</symbol>
<symbol id="icozaux1-search" viewBox="0 0 32 32">
<path d="M17.79 14.019l14.142 14.142-3.771 3.771-14.142-14.142 3.771-3.771z"></path>
<path fill="none" stroke="#3f3f3f" style="stroke: var(--color3, #3f3f3f)" stroke-linejoin="miter" stroke-linecap="butt" stroke-miterlimit="4" stroke-width="5.3333" d="M20 11.333c0 4.786-3.88 8.667-8.667 8.667s-8.667-3.88-8.667-8.667c0-4.786 3.88-8.667 8.667-8.667s8.667 3.88 8.667 8.667z"></path>
</symbol>
<symbol id="icozaux1-close" viewBox="0 0 32 32">
<path d="M0 26.742l26.741-26.741 4.114 4.114-26.741 26.741-4.114-4.114z"></path>
<path d="M4.114 0l26.741 26.741-4.114 4.114-26.741-26.741 4.114-4.114z"></path>
</symbol>
<symbol id="icozaux1-arrowL" viewBox="0 0 29 32">
<path d="M2.187 17.968c-1.497-0.885-1.497-3.051 0-3.936l22.232-13.137c1.524-0.9 3.448 0.198 3.448 1.968v26.274c0 1.77-1.925 2.868-3.448 1.968l-22.232-13.137z"></path>
</symbol>
<symbol id="icozaux1-youtube" viewBox="0 0 45 32">
<path d="M44.077 6.903c0 0-0.435-3.135-1.77-4.516-1.693-1.813-3.591-1.821-4.461-1.927-6.23-0.461-15.576-0.461-15.576-0.461h-0.019c0 0-9.345 0-15.576 0.461-0.871 0.105-2.767 0.114-4.462 1.927-1.334 1.381-1.768 4.516-1.768 4.516s-0.445 3.682-0.445 7.363v3.452c0 3.682 0.445 7.363 0.445 7.363s0.434 3.135 1.768 4.516c1.695 1.813 3.919 1.756 4.91 1.945 3.562 0.35 15.137 0.458 15.137 0.458s9.355-0.014 15.585-0.475c0.87-0.107 2.767-0.115 4.461-1.928 1.334-1.381 1.77-4.516 1.77-4.516s0.445-3.681 0.445-7.363v-3.452c0-3.681-0.445-7.363-0.445-7.363z"></path>
<path fill="#fff" style="fill: var(--color2, #fff)" d="M16.697 21.131l-0.001-12.783 12.029 6.414-12.028 6.37z"></path>
</symbol>
<symbol id="icozaux1-arrowR" viewBox="0 0 27 32">
<path d="M25.681 14.032c1.497 0.885 1.497 3.051 0 3.936l-22.232 13.137c-1.524 0.9-3.449-0.198-3.449-1.968v-26.274c0-1.77 1.925-2.868 3.449-1.968l22.232 13.137z"></path>
</symbol>
<symbol id="icozaux1-instagram" viewBox="0 0 33 32">
<path d="M16.092 0c-4.37 0-4.918 0.019-6.635 0.097-1.713 0.078-2.882 0.348-3.905 0.743-1.058 0.409-1.956 0.955-2.85 1.845s-1.445 1.782-1.857 2.834c-0.399 1.018-0.67 2.181-0.748 3.883-0.077 1.707-0.097 2.252-0.097 6.598s0.019 4.889 0.097 6.596c0.079 1.703 0.35 2.866 0.748 3.883 0.411 1.052 0.961 1.945 1.856 2.834s1.792 1.438 2.849 1.847c1.024 0.396 2.193 0.665 3.906 0.743 1.716 0.078 2.264 0.097 6.634 0.097s4.917-0.019 6.633-0.097c1.713-0.078 2.884-0.348 3.907-0.743 1.058-0.409 1.954-0.957 2.848-1.847s1.445-1.782 1.857-2.834c0.395-1.018 0.667-2.181 0.748-3.883 0.077-1.707 0.097-2.251 0.097-6.596s-0.020-4.891-0.097-6.597c-0.080-1.703-0.352-2.866-0.747-3.883-0.412-1.052-0.962-1.945-1.857-2.834s-1.79-1.437-2.849-1.845c-1.026-0.396-2.196-0.665-3.909-0.743-1.716-0.078-2.263-0.097-6.634-0.097h0.005zM14.649 2.883c0.428-0.001 0.906 0 1.443 0 4.296 0 4.806 0.015 6.502 0.092 1.569 0.071 2.42 0.332 2.988 0.551 0.751 0.29 1.286 0.637 1.849 1.197s0.912 1.093 1.204 1.84c0.22 0.563 0.483 1.41 0.554 2.97 0.077 1.687 0.094 2.193 0.094 6.463s-0.017 4.777-0.094 6.463c-0.072 1.56-0.334 2.407-0.554 2.97-0.292 0.747-0.641 1.278-1.204 1.838s-1.098 0.907-1.849 1.197c-0.567 0.22-1.419 0.48-2.988 0.551-1.696 0.077-2.206 0.093-6.502 0.093s-4.806-0.017-6.502-0.093c-1.569-0.072-2.42-0.333-2.988-0.552-0.751-0.29-1.287-0.637-1.85-1.197s-0.912-1.092-1.204-1.839c-0.22-0.563-0.483-1.41-0.554-2.97-0.077-1.687-0.093-2.193-0.093-6.466s0.015-4.777 0.093-6.463c0.072-1.56 0.334-2.407 0.554-2.971 0.292-0.747 0.641-1.28 1.204-1.84s1.1-0.907 1.85-1.197c0.567-0.22 1.419-0.48 2.988-0.552 1.484-0.067 2.060-0.087 5.059-0.090v0.004zM24.681 5.54c-1.066 0-1.931 0.859-1.931 1.919s0.865 1.92 1.931 1.92 1.931-0.86 1.931-1.92c0-1.060-0.865-1.92-1.931-1.92v0.001zM16.092 7.783c-4.564 0-8.263 3.679-8.263 8.217s3.7 8.215 8.263 8.215c4.563 0 8.262-3.677 8.262-8.215s-3.699-8.217-8.262-8.217h0zM16.092 10.667c2.962 0 5.364 2.388 5.364 5.333s-2.402 5.333-5.364 5.333c-2.962 0-5.364-2.388-5.364-5.333s2.401-5.333 5.364-5.333z"></path>
</symbol>
<symbol id="icozaux1-twitter" viewBox="0 0 40 32">
<path d="M18.802 8.512l0.084 1.384-1.399-0.169c-5.092-0.65-9.541-2.853-13.318-6.553l-1.847-1.836-0.476 1.356c-1.007 3.022-0.364 6.214 1.735 8.361 1.119 1.186 0.867 1.356-1.063 0.65-0.671-0.226-1.259-0.395-1.315-0.311-0.196 0.198 0.476 2.768 1.007 3.785 0.727 1.412 2.21 2.797 3.833 3.616l1.371 0.65-1.623 0.028c-1.567 0-1.623 0.028-1.455 0.621 0.56 1.836 2.77 3.785 5.232 4.633l1.735 0.593-1.511 0.904c-2.238 1.299-4.868 2.034-7.498 2.090-1.259 0.028-2.294 0.141-2.294 0.226 0 0.282 3.413 1.864 5.4 2.486 5.96 1.836 13.038 1.045 18.354-2.090 3.777-2.232 7.554-6.666 9.317-10.96 0.951-2.288 1.903-6.469 1.903-8.474 0-1.299 0.084-1.469 1.651-3.022 0.923-0.904 1.791-1.893 1.959-2.175 0.28-0.537 0.252-0.537-1.175-0.056-2.378 0.847-2.714 0.734-1.539-0.537 0.867-0.904 1.903-2.542 1.903-3.022 0-0.085-0.42 0.056-0.895 0.311-0.504 0.282-1.623 0.706-2.462 0.96l-1.511 0.48-1.371-0.932c-0.755-0.508-1.819-1.073-2.378-1.243-1.427-0.395-3.609-0.339-4.896 0.113-3.497 1.271-5.708 4.548-5.456 8.135z"></path>
</symbol>
<symbol id="icozaux1-facebook" viewBox="0 0 16 32">
<path d="M9.876 31.65v-15.827h4.394l0.582-5.454h-4.976l0.007-2.73c0-1.423 0.136-2.185 2.191-2.185h2.747v-5.455h-4.394c-5.278 0-7.136 2.646-7.136 7.095v3.275h-3.29v5.454h3.29v15.826h6.586z"></path>
</symbol>
<symbol id="icozaux1-linkedin" viewBox="0 0 33 32">
<path d="M7.895 3.642c-0.046-2.067-1.524-3.642-3.925-3.642s-3.97 1.575-3.97 3.642c0 2.025 1.523 3.645 3.879 3.645h0.045c2.447 0 3.971-1.62 3.971-3.645zM7.433 10.165h-7.018v21.086h7.018v-21.086zM24.662 9.67c4.618 0 8.080 3.014 8.080 9.491l-0 12.090h-7.018v-11.281c0-2.834-1.016-4.767-3.556-4.767-1.939 0-3.094 1.303-3.601 2.562-0.186 0.451-0.231 1.080-0.231 1.71v11.776h-7.019c0 0 0.092-19.108 0-21.086h7.019v2.987c0.931-1.436 2.6-3.482 6.326-3.482z"></path>
</symbol>
</defs>
</svg>
