<!-- Generated by IcoMoon.io -->
<svg version="1.1" xmlns="http://www.w3.org/2000/svg" width="32" height="32" viewBox="0 0 32 32">
<title>arrow1</title>
<path d="M31.997 16.029v-0.011c-0.014-1.539-0.719-2.911-1.818-3.823l-0.008-0.007-11.334-9.759c-0.191-0.172-0.444-0.276-0.722-0.276-0.597 0-1.081 0.484-1.081 1.081 0 0.334 0.151 0.632 0.389 0.831l0.002 0.001 11.337 9.765c0.349 0.302 0.627 0.677 0.812 1.1l0.008 0.020h-28.498c-0.598 0-1.083 0.485-1.083 1.083s0.485 1.083 1.083 1.083h28.492c-0.194 0.435-0.469 0.802-0.808 1.097l-0.004 0.003-11.339 9.784c-0.239 0.2-0.39 0.498-0.39 0.832 0 0.598 0.485 1.082 1.082 1.082 0.279 0 0.533-0.105 0.724-0.278l-0.001 0.001 11.337-9.786c1.096-0.914 1.796-2.273 1.819-3.796l0-0.004 0.003-0.019v-0.005z"></path>
</svg>
