<!-- Generated by IcoMoon.io -->
<svg version="1.1" xmlns="http://www.w3.org/2000/svg" width="32" height="32" viewBox="0 0 32 32">
<title>arrow2</title>
<path d="M24.632 16.039v0.035c-0.015 1.72-0.787 3.339-2.113 4.43l-13.108 11.289c-0.513 0.463-1.307 0.42-1.766-0.096-0.463-0.513-0.42-1.303 0.096-1.766 0.012-0.012 0.023-0.019 0.035-0.031l13.112-11.293c0.413-0.355 1.099-0.918 1.099-2.552s-0.686-2.194-1.099-2.548l-13.112-11.293s-0.023-0.019-0.035-0.031c-0.517-0.463-0.559-1.253-0.096-1.766 0.459-0.517 1.253-0.559 1.766-0.096l13.108 11.289c1.326 1.091 2.097 2.71 2.113 4.43z"></path>
</svg>
