<!-- Generated by IcoMoon.io -->
<svg version="1.1" xmlns="http://www.w3.org/2000/svg" width="83" height="32" viewBox="0 0 83 32">
<title>arrow3</title>
<path d="M65.503 31.424c-0.245-0.285-0.394-0.658-0.394-1.067 0-0.498 0.221-0.943 0.571-1.244l0.002-0.002 12.726-10.988c0.169-0.143 0.32-0.298 0.455-0.465l0.005-0.006h-77.23c-0.91 0-1.649-0.738-1.649-1.648s0.738-1.649 1.649-1.649h77.252c-0.145-0.187-0.301-0.352-0.472-0.5l-0.004-0.004-12.726-10.958c-0.351-0.303-0.572-0.749-0.572-1.246 0-0.908 0.736-1.644 1.644-1.644 0.411 0 0.786 0.151 1.075 0.4l-0.002-0.002 12.726 10.949c1.346 1.105 2.199 2.769 2.199 4.632s-0.852 3.527-2.188 4.623l-0.010 0.008-12.737 10.988c-0.289 0.245-0.666 0.395-1.078 0.395h-0c-0.496-0.002-0.939-0.223-1.24-0.57l-0.002-0.002z"></path>
</svg>
