<!-- Generated by IcoMoon.io -->
<svg version="1.1" xmlns="http://www.w3.org/2000/svg" width="32" height="32" viewBox="0 0 32 32">
<title>brain</title>
<path d="M24.879 6.673c-0.575-0.118-1.020-0.564-1.135-1.13l-0.002-0.009c-0.034-0.15-0.073-0.301-0.113-0.445-0.682-2.362-2.8-3.159-4.599-2.911-1.238 0.179-2.3 0.823-3.021 1.747l-0.008 0.010c-0.728-0.934-1.79-1.578-3.003-1.754l-0.025-0.003c-1.797-0.252-3.918 0.547-4.597 2.911-0.043 0.143-0.080 0.295-0.115 0.447-0.116 0.574-0.561 1.019-1.126 1.135l-0.009 0.002c-4.193 0.814-7.123 4.413-7.126 8.747-0 0.011-0 0.023-0 0.036 0 3.715 2.287 6.896 5.53 8.212l0.059 0.021c0.69 0.275 1.227 0.809 1.5 1.478l0.006 0.018c0.626 1.528 1.62 2.796 2.875 3.735l0.023 0.016c0.678 0.52 1.537 0.834 2.47 0.836h0.001c0.703-0.002 1.366-0.174 1.949-0.477l-0.024 0.011c0.653-0.34 1.194-0.814 1.602-1.388l0.009-0.014c0.417 0.588 0.958 1.062 1.587 1.39l0.025 0.012c0.561 0.292 1.224 0.464 1.927 0.466h0.001c0.933-0.002 1.793-0.316 2.48-0.843l-0.010 0.007c1.277-0.956 2.271-2.224 2.877-3.693l0.021-0.058c0.279-0.688 0.817-1.221 1.489-1.49l0.018-0.006c3.301-1.337 5.587-4.517 5.587-8.231 0-0.013-0-0.027-0-0.040v0.002c0-4.334-2.928-7.933-7.123-8.747zM13.626 27.775c-0.33 0.178-0.723 0.282-1.14 0.282-0.553 0-1.064-0.184-1.474-0.494l0.006 0.004c-1.029-0.767-1.83-1.786-2.319-2.967l-0.017-0.047c-0.454-1.126-1.332-2.001-2.431-2.441l-0.029-0.010c-2.666-1.081-4.512-3.65-4.512-6.65 0-0.012 0-0.023 0-0.035v0.002c-0.001-0.034-0.001-0.074-0.001-0.114 0-3.437 2.448-6.303 5.696-6.948l0.045-0.007c1.241-0.254 2.206-1.206 2.476-2.42l0.004-0.021c0.027-0.118 0.055-0.235 0.090-0.348 0.423-1.47 1.682-1.832 2.717-1.691 1.2 0.169 2.411 1.060 2.411 2.667v4.5c-0.45-0.259-0.989-0.414-1.564-0.417h-0.001c-1.807 0.003-3.271 1.466-3.275 3.273v0.857h1.712v-0.857c0.012-0.855 0.707-1.543 1.563-1.543s1.552 0.688 1.563 1.542v11.458c-0.002 1.061-0.614 1.978-1.504 2.42l-0.016 0.007zM25.781 22.104c-1.128 0.45-2.006 1.324-2.45 2.42l-0.010 0.029c-0.507 1.228-1.308 2.247-2.319 3.001l-0.019 0.013c-0.403 0.306-0.913 0.49-1.466 0.49-0.417 0-0.809-0.105-1.152-0.289l0.013 0.006c-0.907-0.448-1.519-1.366-1.522-2.426v-5.208c0.45 0.257 0.989 0.411 1.563 0.415h0.001c1.808-0.002 3.272-1.467 3.274-3.274v-0.855h-1.71v0.855c0 0.006 0 0.013 0 0.020 0 0.864-0.7 1.565-1.565 1.565s-1.565-0.7-1.565-1.565c0-0.007 0-0.014 0-0.021v0.001-10.744c0-1.607 1.212-2.498 2.413-2.667 0.126-0.019 0.271-0.030 0.419-0.030h0c0.030-0.001 0.065-0.002 0.1-0.002 1.058 0 1.946 0.726 2.194 1.707l0.003 0.016c0.032 0.113 0.062 0.231 0.088 0.347 0.274 1.235 1.239 2.187 2.459 2.439l0.021 0.004c3.292 0.653 5.74 3.519 5.74 6.956 0 0.040-0 0.079-0.001 0.119l0-0.006c0 0.009 0 0.020 0 0.031 0 3.001-1.846 5.57-4.464 6.635l-0.048 0.017z"></path>
<path d="M20.838 10.783h-0.855v1.712h0.855c2.198 0.002 3.979 1.782 3.982 3.979v0.856h1.71v-0.856c-0.004-3.142-2.55-5.687-5.691-5.691h-0z"></path>
<path d="M7.182 14.701v-0.855h-1.71v0.855c0.004 3.142 2.55 5.687 5.691 5.691h0.855v-1.712h-0.855c-2.198-0.001-3.979-1.782-3.982-3.979v-0z"></path>
</svg>
