<!-- Generated by IcoMoon.io -->
<svg version="1.1" xmlns="http://www.w3.org/2000/svg" width="32" height="32" viewBox="0 0 32 32">
<title>branches</title>
<path d="M8.192 13.259l3.115-3.116h2.244c0.411 1.934 2.105 3.364 4.132 3.364 2.331 0 4.22-1.889 4.22-4.22s-1.889-4.22-4.22-4.22c-2.028 0-3.721 1.43-4.127 3.336l-0.005 0.028h-2.597c-0.237 0.001-0.451 0.097-0.607 0.252v0l-3.114 3.116h-7.232v1.71h7.585c0.237-0.001 0.451-0.096 0.607-0.25l-0 0zM17.683 6.779c1.386 0 2.51 1.124 2.51 2.51s-1.124 2.51-2.51 2.51c-1.386 0-2.51-1.124-2.51-2.51 0-0 0-0.001 0-0.001v0c0.002-1.385 1.125-2.507 2.51-2.509h0z"></path>
<path d="M27.78 11.801c-2.027 0.003-3.72 1.433-4.128 3.338l-0.005 0.028h-23.646v1.712h23.646c0.412 1.934 2.105 3.364 4.133 3.364 2.331 0 4.221-1.89 4.221-4.221s-1.89-4.221-4.221-4.221v0zM27.78 18.531c-1.386-0.001-2.509-1.124-2.509-2.51s1.124-2.51 2.51-2.51 2.51 1.124 2.51 2.51c0 0 0 0.001 0 0.001v-0c-0.001 1.386-1.125 2.509-2.511 2.509v0z"></path>
<path d="M21.050 18.529c-2.027 0.003-3.72 1.433-4.128 3.338l-0.005 0.028h-2.244l-3.114-3.116c-0.155-0.154-0.369-0.249-0.605-0.25h-10.954v1.71h10.598l3.116 3.116c0.155 0.155 0.368 0.251 0.605 0.252h2.597c0.412 1.934 2.105 3.364 4.133 3.364 2.331 0 4.221-1.89 4.221-4.221s-1.89-4.221-4.221-4.221v0zM21.050 25.259c-1.384-0.001-2.506-1.122-2.509-2.506v-0.005c0.001-1.386 1.124-2.509 2.51-2.509s2.51 1.124 2.51 2.51-1.124 2.51-2.51 2.51c-0 0-0.001 0-0.001 0h0z"></path>
</svg>
