<!-- Generated by IcoMoon.io -->
<svg version="1.1" xmlns="http://www.w3.org/2000/svg" width="32" height="32" viewBox="0 0 32 32">
<title>bulb</title>
<path d="M13.432 32c-0.269 0-0.487-0.218-0.487-0.487s0.218-0.487 0.487-0.487h5.198c0.269 0 0.487 0.218 0.487 0.487s-0.218 0.487-0.487 0.487v0zM12.28 29.352c-0.269 0-0.487-0.218-0.487-0.487s0.218-0.487 0.487-0.487h7.502c0.269 0 0.487 0.218 0.487 0.487s-0.218 0.487-0.487 0.487v0zM26.678 27.361l-2.505-2.505c-0.088-0.088-0.143-0.21-0.143-0.344 0-0.269 0.218-0.487 0.487-0.487 0.135 0 0.256 0.055 0.345 0.143l2.506 2.505c0.088 0.088 0.142 0.21 0.142 0.344 0 0.269-0.218 0.487-0.487 0.487-0.135 0-0.257-0.055-0.345-0.143v0zM4.696 27.361c-0.088-0.088-0.143-0.21-0.143-0.344s0.055-0.256 0.143-0.344l2.505-2.505c0.088-0.088 0.21-0.143 0.344-0.143 0.269 0 0.487 0.218 0.487 0.487 0 0.135-0.055 0.256-0.143 0.344l-2.505 2.505c-0.088 0.088-0.21 0.143-0.345 0.143s-0.256-0.055-0.345-0.143l-0-0zM12.038 26.416c-0 0-0 0-0 0-0.269 0-0.488-0.218-0.488-0.487v-0c0-1.444-0.536-2.925-1.366-3.771-1.746-1.78-2.632-3.844-2.632-6.133 0-4.675 3.804-8.477 8.479-8.477s8.479 3.802 8.479 8.477c0 2.289-0.886 4.353-2.632 6.133-0.826 0.843-1.36 2.323-1.36 3.772-0 0.269-0.218 0.487-0.487 0.487h-0zM28.033 16.515c-0.269 0-0.487-0.218-0.487-0.487s0.218-0.487 0.487-0.487h3.542c0.269 0 0.487 0.218 0.487 0.487s-0.218 0.487-0.487 0.487v0zM0.487 16.515c-0.269 0-0.487-0.218-0.487-0.487s0.218-0.487 0.487-0.487h3.543c0.269 0 0.487 0.218 0.487 0.487s-0.218 0.487-0.487 0.487v0zM24.173 7.887c-0.088-0.088-0.142-0.21-0.142-0.344s0.054-0.256 0.142-0.344v0l2.506-2.504c0.088-0.088 0.21-0.143 0.344-0.143 0.269 0 0.487 0.218 0.487 0.487 0 0.135-0.055 0.256-0.143 0.344l-2.505 2.504c-0.088 0.089-0.21 0.143-0.345 0.143s-0.257-0.055-0.345-0.143l-0-0zM7.201 7.887l-2.505-2.504c-0.088-0.088-0.143-0.21-0.143-0.344 0-0.269 0.218-0.487 0.487-0.487 0.135 0 0.256 0.055 0.345 0.143l2.505 2.504c0.091 0.089 0.148 0.213 0.148 0.35 0 0.269-0.218 0.487-0.487 0.487-0.137 0-0.261-0.057-0.35-0.148l-0-0zM15.544 4.029v-3.542c0-0.269 0.218-0.487 0.487-0.487s0.487 0.218 0.487 0.487v0 3.542c0 0.269-0.218 0.487-0.487 0.487s-0.487-0.218-0.487-0.487v0z"></path>
</svg>
