<!-- Generated by IcoMoon.io -->
<svg version="1.1" xmlns="http://www.w3.org/2000/svg" width="32" height="32" viewBox="0 0 32 32">
<title>chain</title>
<path d="M8.838 31.845c-0.010 0-0.023 0-0.035 0-2.369 0-4.519-0.936-6.101-2.458l0.003 0.003c-1.572-1.509-2.549-3.628-2.549-5.975 0-2.343 0.974-4.459 2.539-5.965l0.003-0.003 3.825-3.698c1.574-1.522 3.721-2.461 6.087-2.461 2.274 0 4.346 0.867 5.903 2.288l-0.007-0.006-1.37 1.445-0.005-0.005c-1.193-1.077-2.781-1.736-4.523-1.736-1.828 0-3.487 0.726-4.704 1.905l0.002-0.002-3.824 3.698c-1.195 1.147-1.938 2.757-1.938 4.541s0.743 3.394 1.935 4.539l0.002 0.002c1.232 1.175 2.903 1.898 4.743 1.898 1.839 0 3.51-0.722 4.744-1.898l-0.003 0.003 2.51-2.231 1.323 1.487-2.477 2.201c-1.564 1.503-3.692 2.428-6.036 2.428-0.016 0-0.032-0-0.048-0h0.002"></path>
<path d="M19.38 20.706c-0.004 0-0.010 0-0.015 0-2.27 0-4.337-0.867-5.889-2.287l0.007 0.006-0.878-0.468 1.134-1.617 0.881 0.473c2.836 2.545 6.905 2.483 9.464 0.007l3.823-3.698c1.194-1.147 1.935-2.757 1.935-4.54s-0.742-3.393-1.933-4.538l-0.002-0.002c-1.231-1.176-2.903-1.899-4.744-1.899-1.838 0-3.508 0.722-4.742 1.897l0.003-0.003-2.513 2.232-1.321-1.486 2.48-2.204c1.584-1.501 3.729-2.425 6.090-2.425 2.377 0 4.535 0.936 6.126 2.459l-0.003-0.003c1.572 1.508 2.549 3.627 2.549 5.973 0 2.343-0.974 4.458-2.539 5.964l-0.003 0.003-3.823 3.698c-1.568 1.52-3.709 2.457-6.069 2.457-0.006 0-0.012 0-0.018-0h0.001"></path>
</svg>
