<!-- Generated by IcoMoon.io -->
<svg version="1.1" xmlns="http://www.w3.org/2000/svg" width="32" height="32" viewBox="0 0 32 32">
<title>cloud</title>
<path d="M29.954 16.202c-1.217-1.362-2.883-2.302-4.763-2.587l-0.044-0.005c0.027-0.262 0.041-0.565 0.041-0.905 0-0 0-0 0-0.001 0-5.101-4.135-9.236-9.236-9.236-3.859 0-7.164 2.366-8.546 5.727l-0.022 0.062c-0.277 0.718-0.826 1.278-1.518 1.563l-0.018 0.007c-3.453 1.382-5.847 4.7-5.847 8.577 0 0.187 0.006 0.373 0.017 0.558l-0.001-0.025c0.268 4.886 4.482 8.716 9.587 8.716h14.471c4.005 0 7.423-2.993 7.787-6.822 0.016-0.185 0.026-0.4 0.026-0.617 0-1.931-0.734-3.691-1.937-5.016l0.006 0.006zM24.071 26.946h-14.469c-4.203 0-7.668-3.12-7.885-7.106-0.008-0.131-0.013-0.284-0.013-0.439 0-3.159 1.951-5.863 4.714-6.971l0.051-0.018c1.151-0.465 2.043-1.367 2.486-2.494l0.010-0.030c1.145-2.79 3.841-4.719 6.987-4.719 4.16 0 7.532 3.372 7.532 7.532 0 0.001 0 0.002 0 0.003v-0c0 0 0 0 0 0.001 0 0.492-0.043 0.974-0.126 1.442l0.007-0.049c-0.030 0.084-0.047 0.18-0.047 0.281 0 0.002 0 0.003 0 0.005v-0 0.015c-0 0.007-0 0.015-0 0.023 0 0.48 0.367 0.875 0.836 0.918l0.004 0c0.002 0 0.004 0 0.006 0 0.143 0 0.279-0.029 0.403-0.083l-0.007 0.003c1.647 0.152 3.090 0.92 4.116 2.069l0.005 0.006c0.932 1.019 1.503 2.382 1.503 3.878 0 0.16-0.007 0.318-0.019 0.475l0.001-0.021c-0.281 2.965-2.954 5.28-6.094 5.28z"></path>
</svg>
