<!-- Generated by IcoMoon.io -->
<svg version="1.1" xmlns="http://www.w3.org/2000/svg" width="32" height="32" viewBox="0 0 32 32">
<title>code</title>
<path d="M13.319 26.673l3.591-21.629 1.666 0.278-3.592 21.627zM1.604 19c-0.899-0.701-1.472-1.784-1.472-3.002s0.573-2.301 1.464-2.995l0.008-0.006 7.799-6.507 1.082 1.298-7.797 6.506c-0.527 0.388-0.865 1.006-0.865 1.704s0.338 1.315 0.859 1.699l0.006 0.004 7.797 6.504-1.082 1.299zM21.412 24.206l7.797-6.506c0.513-0.399 0.845-1.011 0.863-1.7l0-0.003c-0.018-0.693-0.35-1.305-0.858-1.702l-0.005-0.004-7.797-6.506 1.084-1.296 7.797 6.504c0.898 0.702 1.469 1.785 1.469 3.002s-0.572 2.3-1.461 2.995l-0.008 0.006-7.797 6.506z"></path>
</svg>
