<!-- Generated by IcoMoon.io -->
<svg version="1.1" xmlns="http://www.w3.org/2000/svg" width="32" height="32" viewBox="0 0 32 32">
<title>database</title>
<path d="M16.060 0c-7.239 0-12.699 2.547-12.699 5.926v20.27c0 3.379 5.459 5.928 12.699 5.928s12.699-2.55 12.699-5.928v-20.27c0-3.379-5.459-5.926-12.699-5.926zM16.060 1.721c6.472 0 10.98 2.217 10.98 4.206s-4.508 4.206-10.98 4.206-10.98-2.215-10.98-4.206 4.508-4.206 10.98-4.206zM16.060 30.404c-6.472 0-10.98-2.217-10.98-4.208v-3.703c2.162 1.746 6.171 2.874 10.98 2.874s8.82-1.128 10.98-2.874v3.703c0 1.99-4.508 4.208-10.98 4.208zM16.060 23.647c-6.472 0-10.98-2.217-10.98-4.207v-3.704c2.162 1.744 6.171 2.874 10.98 2.874s8.82-1.129 10.98-2.874v3.704c0 1.99-4.508 4.208-10.98 4.208zM16.060 16.89c-6.472 0-10.98-2.214-10.98-4.206v-3.704c2.162 1.744 6.171 2.872 10.98 2.872s8.82-1.128 10.98-2.872v3.703c0 1.99-4.508 4.206-10.98 4.206z"></path>
</svg>
