<!-- Generated by IcoMoon.io -->
<svg version="1.1" xmlns="http://www.w3.org/2000/svg" width="25" height="32" viewBox="0 0 25 32">
<title>doc</title>
<path d="M25.263 22.73v-18.51c-0.002-2.329-1.889-4.217-4.218-4.22h-16.821c-2.331 0.003-4.221 1.891-4.225 4.222v23.556c0.003 2.33 1.89 4.219 4.22 4.222h11.779c0 0 0 0 0 0 0.119 0 0.232-0.025 0.334-0.070l-0.005 0.002c0.088-0.040 0.163-0.091 0.229-0.152l-0.001 0c0.013-0.013 0.034-0.017 0.047-0.032l8.413-8.413c0.009-0.012 0.017-0.026 0.026-0.040l0.001-0.002c0.064-0.066 0.117-0.143 0.156-0.228l0.002-0.005c0.041-0.096 0.064-0.208 0.064-0.326 0-0.001 0-0.002 0-0.004v0zM1.711 27.778v-23.555c0.002-1.387 1.126-2.51 2.513-2.511h16.821c1.386 0 2.509 1.123 2.511 2.509v17.654h-5.876c-1.401 0.003-2.536 1.139-2.536 2.541v5.874h-10.923c-1.385-0.002-2.508-1.125-2.509-2.511v-0zM22.347 23.585l-5.493 5.493v-4.664c0-0.457 0.37-0.828 0.827-0.829h0z"></path>
</svg>
