<!-- Generated by IcoMoon.io -->
<svg version="1.1" xmlns="http://www.w3.org/2000/svg" width="22" height="32" viewBox="0 0 22 32">
<title>Download</title>
<path d="M20.553 29.189h-19.147c-0.789 0-1.405 0.629-1.405 1.405 0 0.789 0.616 1.406 1.405 1.406h19.147c0.771 0 1.405-0.616 1.405-1.406 0-0.777-0.635-1.405-1.405-1.405z"></path>
<path d="M10.467 26.082c0.142 0.166 0.339 0.265 0.549 0.265h0.012c0.21 0 0.407-0.111 0.536-0.284l9.555-12.292c0.166-0.222 0.197-0.505 0.086-0.746-0.13-0.24-0.364-0.394-0.635-0.394h-4.593v-11.928c0-0.197-0.086-0.364-0.21-0.505-0.142-0.129-0.308-0.197-0.493-0.197h-9.037c-0.185 0-0.364 0.068-0.493 0.21-0.129 0.129-0.21 0.308-0.21 0.493l0.012 12.643-4.118-0.154c-0.284 0-0.536 0.142-0.647 0.394-0.129 0.24-0.099 0.549 0.086 0.758l9.598 11.737z"></path>
</svg>
