<!-- Generated by IcoMoon.io -->
<svg version="1.1" xmlns="http://www.w3.org/2000/svg" width="32" height="32" viewBox="0 0 32 32">
<title>gecko</title>
<path d="M25.379 19.080v0c0.366-0.229 0.689-0.313 0.96-0.286 0.361 0.036 0.634 0.268 0.814 0.615 0.088 0.173 0.157 0.374 0.196 0.585l0.002 0.014c0.144 0.774-0.009 1.777-0.498 2.571-2.265 3.688-6.277 6.111-10.854 6.111-1.073 0-2.115-0.133-3.111-0.384l0.088 0.019c-1.632-0.407-3.064-1.081-4.322-1.982l0.038 0.026q-0.473-0.336-0.913-0.712c-2.314-2.005-3.902-4.794-4.349-7.951l-0.008-0.069c-0.070-0.498-0.11-1.073-0.11-1.658 0-0.632 0.047-1.254 0.137-1.861l-0.008 0.069c0.981-6.76 7.077-11.409 13.66-10.831 0.508 0.045 0.96 0.111 1.404 0.199l-0.082-0.014c2.88 0.565 5.346 2.048 7.142 4.127l0.014 0.016h0.001c0.152 0.173 0.336 0.313 0.543 0.413l0.010 0.004c0.206 0.097 0.447 0.154 0.701 0.154v0c0.917-0 1.661-0.744 1.661-1.661 0-0.415-0.152-0.795-0.404-1.086l0.002 0.002-0.001-0.001-0.001-0.002c-0.693-0.801-1.495-1.503-2.344-2.151-0.34-0.26-0.664-0.538-1.027-0.769-1.62-1.068-3.521-1.865-5.563-2.273l-0.102-0.017h-0.005c-0.437-0.090-0.985-0.17-1.542-0.221l-0.062-0.005c-0.176-0.016-0.352-0.015-0.527-0.026-0.31-0.017-0.617-0.044-0.923-0.044-0.050 0-0.096 0.006-0.144 0.006-0.19 0.001-0.375 0.017-0.562 0.026-0.331 0.015-0.66 0.032-0.987 0.067-0.203 0.022-0.403 0.054-0.605 0.083-0.306 0.045-0.611 0.095-0.913 0.157-0.204 0.043-0.407 0.091-0.609 0.141q-0.441 0.11-0.874 0.244c-0.198 0.061-0.395 0.123-0.589 0.191-0.289 0.102-0.574 0.215-0.857 0.334-0.183 0.076-0.366 0.149-0.545 0.233-0.298 0.138-0.585 0.29-0.874 0.444-0.154 0.083-0.311 0.159-0.463 0.248-0.359 0.209-0.706 0.434-1.047 0.67-0.070 0.049-0.146 0.091-0.215 0.141q-0.613 0.437-1.181 0.931c-0.108 0.093-0.208 0.195-0.311 0.291-0.265 0.243-0.528 0.488-0.778 0.748-0.13 0.137-0.25 0.28-0.376 0.421-0.212 0.237-0.42 0.474-0.615 0.723-0.127 0.159-0.245 0.325-0.366 0.489-0.182 0.247-0.355 0.497-0.522 0.754-0.115 0.176-0.223 0.354-0.33 0.535-0.156 0.262-0.302 0.532-0.443 0.805-0.096 0.187-0.193 0.373-0.281 0.565-0.133 0.288-0.255 0.583-0.373 0.881-0.073 0.188-0.152 0.372-0.218 0.564-0.117 0.335-0.217 0.677-0.313 1.023-0.046 0.167-0.101 0.329-0.142 0.498-0.126 0.519-0.232 1.048-0.308 1.59-0.062 0.449-0.099 0.899-0.123 1.346-0.006 0.126-0.010 0.251-0.014 0.377-0.004 0.146-0.017 0.293-0.017 0.438v0.058c0 0.143 0.015 0.285 0.020 0.428 0.005 0.202 0.012 0.403 0.026 0.605 0.019 0.271 0.047 0.542 0.080 0.812 0.021 0.197 0.045 0.392 0.076 0.588 0.044 0.274 0.098 0.545 0.157 0.816 0.039 0.184 0.072 0.369 0.117 0.55 0.072 0.289 0.159 0.573 0.247 0.857 0.050 0.157 0.091 0.316 0.144 0.471 0.126 0.365 0.266 0.723 0.417 1.077 0.031 0.069 0.052 0.139 0.082 0.208q0.28 0.628 0.61 1.228c0.069 0.127 0.151 0.248 0.223 0.372 0.157 0.27 0.316 0.54 0.49 0.802 0.099 0.149 0.207 0.293 0.311 0.438 0.163 0.227 0.324 0.453 0.499 0.672 0.118 0.149 0.244 0.293 0.369 0.438 0.174 0.204 0.351 0.407 0.535 0.603 0.135 0.142 0.273 0.279 0.412 0.417 0.189 0.186 0.382 0.369 0.581 0.545 0.147 0.132 0.298 0.26 0.449 0.386 0.206 0.171 0.416 0.334 0.63 0.494 0.158 0.118 0.316 0.234 0.479 0.347 0.224 0.154 0.454 0.3 0.687 0.443 0.164 0.102 0.327 0.204 0.497 0.3 0.249 0.142 0.505 0.27 0.763 0.398 0.163 0.081 0.324 0.167 0.489 0.243 0.294 0.133 0.595 0.25 0.899 0.367 0.142 0.054 0.279 0.115 0.422 0.166 0.452 0.158 0.913 0.299 1.386 0.417 0.546 0.145 1.219 0.274 1.906 0.358l0.077 0.008c0.213 0.026 0.423 0.024 0.636 0.040 0.416 0.034 0.832 0.078 1.241 0.080h0.096l0.036-0.002c0.058 0 0.115-0.007 0.172-0.009 0.578-0.010 1.134-0.050 1.681-0.119l-0.076 0.008c0.179-0.021 0.352-0.050 0.53-0.076q0.642-0.099 1.269-0.248c0.164-0.039 0.33-0.073 0.492-0.118 0.674-0.18 1.222-0.362 1.757-0.572l-0.11 0.038c0.030-0.012 0.058-0.027 0.086-0.039 0.606-0.244 1.094-0.474 1.568-0.728l-0.084 0.041c0.154-0.081 0.302-0.167 0.456-0.253q0.553-0.312 1.078-0.665c0.142-0.096 0.284-0.188 0.423-0.288 0.506-0.362 0.945-0.713 1.365-1.086l-0.017 0.014 0.001-0.001c2.53-2.265 4.324-5.305 5.008-8.744l0.017-0.101c0.167-0.863 0.675-3.477-1.132-4.664-0.353-0.237-0.771-0.408-1.221-0.484l-0.019-0.003c-1.015-0.168-2.161 0.151-3.446 0.813-0.367 0.189-0.743 0.396-1.133 0.64-0.073 0.046-0.151 0.11-0.224 0.158-0.778 0.513-1.561 1.152-2.469 1.814-0.192 0.142-0.416 0.255-0.657 0.328l-0.016 0.004c-0.718 0.215-1.533 0.062-2.064-0.62-0.11-0.147-0.199-0.318-0.255-0.503l-0.003-0.012c-0.255-0.816 0.184-1.724 1.046-2.164 0.799-0.407 1.551-0.642 2.182-1.122 0.21-0.157 0.393-0.332 0.553-0.527l0.004-0.005c0.662-0.82 0.471-1.863-0.337-2.38-0.046-0.033-0.099-0.067-0.154-0.099l-0.009-0.005c-0.235-0.127-0.515-0.201-0.811-0.201-0.018 0-0.035 0-0.053 0.001l0.003-0c-0.135 0.007-0.262 0.032-0.382 0.073l0.010-0.003c-0.584 0.194-0.998 0.746-1.216 1.234-0.863 1.924-1.25 2.601-1.891 2.632-0.011 0-0.025 0.001-0.038 0.001-0.089 0-0.176-0.009-0.26-0.027l0.008 0.001c-1.045-0.203-1.142-3.418-1.157-5.097-0.006-1.050-0.657-1.556-1.369-1.653-0.068-0.008-0.146-0.013-0.226-0.013-0.047 0-0.093 0.002-0.139 0.005l0.006-0c-0.024 0.001-0.047-0.004-0.070-0.002-0.211 0.022-0.405 0.076-0.583 0.157l0.012-0.005c-0.087 0.032-0.159 0.064-0.228 0.102l0.009-0.005c-0.050 0.041-0.094 0.082-0.137 0.125l-0 0c-0.621 0.484-0.816 1.338-0.478 2.078 0.37 0.797 2.675 4.217 1.489 4.985-0.286 0.185-0.686 0.138-1.149-0.043-1.46-0.568-3.571-2.487-4.875-2.847-0.116-0.032-0.249-0.050-0.386-0.050-0.012 0-0.024 0-0.037 0l0.002-0c-0.837 0.009-1.615 0.688-1.626 1.579-0.014 0.88 0.502 1.703 1.586 1.85 1.092 0.148 5.408 0.223 5.856 1.784 0.458 1.587-2.227 2.674-3.391 3.065-0.078 0.026-0.149 0.049-0.212 0.069-0.352 0.107-0.641 0.331-0.829 0.625l-0.004 0.006-0.005 0.006c-0.149 0.249-0.236 0.548-0.236 0.869 0 0.703 0.423 1.307 1.028 1.572l0.011 0.004c0.020 0.007 0.040 0.005 0.060 0.012 0.16 0.066 0.346 0.108 0.54 0.114l0.003 0c0.003 0 0.006 0 0.009 0 0.643 0 1.206-0.343 1.516-0.856l0.004-0.008 1.15-1.909c0.155-0.247 0.349-0.454 0.575-0.62l0.006-0.004c0.375-0.292 0.852-0.469 1.371-0.469 0.737 0 1.391 0.356 1.799 0.906l0.004 0.006c0.171 0.229 0.324 0.44 0.457 0.625 0.123 0.172 0.229 0.324 0.304 0.44 0.267 0.405 0.683 0.693 1.168 0.789l0.012 0.002h0.001c0.109 0.023 0.235 0.035 0.364 0.035 0.015 0 0.030-0 0.046-0.001l-0.002 0c0.055-0.001 0.112-0.014 0.166-0.020 0.092-0.006 0.178-0.017 0.261-0.033l-0.012 0.002c0.112-0.027 0.203-0.055 0.291-0.088l-0.019 0.006c0.056-0.019 0.108-0.030 0.164-0.051 0.047-0.019 0.098-0.045 0.143-0.066 0.621-0.266 1.357-0.748 2.334-1.419 0.168-0.115 0.332-0.228 0.515-0.354 0.017-0.012 0.032-0.021 0.050-0.032 0.956-0.657 1.157-0.799 1.513-1.028z"></path>
</svg>
