<!-- Generated by IcoMoon.io -->
<svg version="1.1" xmlns="http://www.w3.org/2000/svg" width="32" height="32" viewBox="0 0 32 32">
<title>globe</title>
<path d="M31.063 21.332c0.592-1.586 0.935-3.418 0.935-5.331s-0.343-3.745-0.97-5.44l0.035 0.108c-0.010-0.028-0.017-0.057-0.028-0.085-2.277-6.222-8.147-10.582-15.035-10.582s-12.759 4.361-15.001 10.474l-0.036 0.111c-0.009 0.021-0.019 0.047-0.027 0.075l-0.001 0.006c-0.592 1.587-0.935 3.42-0.935 5.333s0.343 3.747 0.97 5.442l-0.035-0.109c0.010 0.033 0.019 0.060 0.030 0.085l-0.002-0.005c2.277 6.223 8.147 10.584 15.036 10.584s12.759-4.361 15-10.473l0.036-0.111c0.009-0.021 0.019-0.049 0.027-0.077l0.002-0.006zM1.885 16.002c0.002-1.454 0.223-2.855 0.634-4.174l-0.027 0.1h7.781c-0.15 1.223-0.236 2.638-0.236 4.073s0.086 2.85 0.252 4.241l-0.016-0.168h-7.781c-0.384-1.218-0.605-2.619-0.607-4.071v-0.001zM11.921 16.002c0.008-1.444 0.103-2.858 0.28-4.246l-0.018 0.172h7.628c0.16 1.218 0.254 2.632 0.26 4.067l0 0.007c-0.006 1.441-0.1 2.854-0.277 4.241l0.018-0.17h-7.626c-0.159-1.215-0.254-2.628-0.262-4.062l-0-0.010zM21.722 11.928h7.783c0.382 1.219 0.602 2.62 0.602 4.073s-0.22 2.854-0.629 4.173l0.027-0.1h-7.783c0.149-1.219 0.235-2.633 0.238-4.068v-0.004c-0.003-1.439-0.090-2.854-0.255-4.246l0.017 0.171zM28.768 10.037h-7.359c-0.491-2.924-1.249-5.531-2.27-8.002l0.089 0.243c4.256 1.037 7.695 3.891 9.504 7.673l0.037 0.085zM17.063 1.946c1.058 2.333 1.904 5.048 2.405 7.883l0.031 0.209h-7.006c0.537-3.045 1.383-5.76 2.527-8.313l-0.089 0.222c0.354-0.026 0.708-0.054 1.067-0.054s0.713 0.028 1.064 0.054zM12.772 2.279c-0.931 2.226-1.691 4.832-2.157 7.539l-0.031 0.219h-7.355c1.845-3.869 5.285-6.724 9.447-7.739l0.097-0.020zM3.229 21.965h7.355c0.494 2.925 1.255 5.531 2.277 8.002l-0.089-0.243c-4.258-1.034-7.699-3.889-9.507-7.673l-0.037-0.085zM14.932 30.056c-1.056-2.332-1.902-5.047-2.407-7.88l-0.031-0.211h7.006c-0.532 3.043-1.379 5.759-2.524 8.311l0.088-0.219c-0.349 0.026-0.703 0.054-1.064 0.054s-0.713-0.028-1.067-0.054zM19.228 29.723c0.931-2.227 1.69-4.833 2.153-7.541l0.031-0.218h7.357c-1.845 3.869-5.284 6.723-9.444 7.739l-0.097 0.020z"></path>
</svg>
