<!-- Generated by IcoMoon.io -->
<svg version="1.1" xmlns="http://www.w3.org/2000/svg" width="32" height="32" viewBox="0 0 32 32">
<title>ig-share</title>
<path fill="#acacac" d="M27.306 27.311c6.247-6.247 6.247-16.375 0-22.622s-16.375-6.247-22.622 0c-6.247 6.247-6.247 16.375 0 22.622s16.375 6.247 22.622 0z"></path>
<path fill="#fff" d="M11.293 5.807c-3.024 0-5.508 2.491-5.508 5.515v9.357c0 3.017 2.483 5.508 5.508 5.508h9.414c3.017 0 5.508-2.483 5.508-5.508v-9.364c0-3.017-2.483-5.508-5.508-5.508h-9.414zM21.483 9.364c-0.676 0-1.167 0.541-1.167 1.167 0 0.633 0.484 1.167 1.167 1.167 0.633 0 1.167-0.534 1.167-1.167s-0.534-1.167-1.167-1.167zM15.975 10.439c-3.024 0-5.508 2.54-5.508 5.558 0 3.067 2.483 5.557 5.508 5.557h0.050c3.024 0 5.557-2.483 5.557-5.557 0-3.024-2.533-5.558-5.557-5.558h-0.050zM15.975 12.339h0.050c2 0 3.658 1.658 3.658 3.658 0 2.049-1.658 3.707-3.658 3.707h-0.050c-2 0-3.658-1.658-3.658-3.707 0-2 1.658-3.658 3.658-3.658zM11.343 7.564h9.315c2.099 0 3.807 1.708 3.807 3.807v9.265c0 2.099-1.708 3.807-3.807 3.807h-9.315c-2.099 0-3.807-1.708-3.807-3.807v-9.272c0-2.092 1.708-3.8 3.807-3.8z"></path>
</svg>
