<!-- Generated by IcoMoon.io -->
<svg version="1.1" xmlns="http://www.w3.org/2000/svg" width="33" height="32" viewBox="0 0 33 32">
<title>instagram</title>
<path d="M16.092 0c-4.37 0-4.918 0.019-6.635 0.097-1.713 0.078-2.882 0.348-3.905 0.743-1.058 0.409-1.956 0.955-2.85 1.845s-1.445 1.782-1.857 2.834c-0.399 1.018-0.67 2.181-0.748 3.883-0.077 1.707-0.097 2.252-0.097 6.598s0.019 4.889 0.097 6.596c0.079 1.703 0.35 2.866 0.748 3.883 0.411 1.052 0.961 1.945 1.856 2.834s1.792 1.438 2.849 1.847c1.024 0.396 2.193 0.665 3.906 0.743 1.716 0.078 2.264 0.097 6.634 0.097s4.917-0.019 6.633-0.097c1.713-0.078 2.884-0.348 3.907-0.743 1.058-0.409 1.954-0.957 2.848-1.847s1.445-1.782 1.857-2.834c0.395-1.018 0.667-2.181 0.748-3.883 0.077-1.707 0.097-2.251 0.097-6.596s-0.020-4.891-0.097-6.597c-0.080-1.703-0.352-2.866-0.747-3.883-0.412-1.052-0.962-1.945-1.857-2.834s-1.79-1.437-2.849-1.845c-1.026-0.396-2.196-0.665-3.909-0.743-1.716-0.078-2.263-0.097-6.634-0.097h0.005zM14.649 2.883c0.428-0.001 0.906 0 1.443 0 4.296 0 4.806 0.015 6.502 0.092 1.569 0.071 2.42 0.332 2.988 0.551 0.751 0.29 1.286 0.637 1.849 1.197s0.912 1.093 1.204 1.84c0.22 0.563 0.483 1.41 0.554 2.97 0.077 1.687 0.094 2.193 0.094 6.463s-0.017 4.777-0.094 6.463c-0.072 1.56-0.334 2.407-0.554 2.97-0.292 0.747-0.641 1.278-1.204 1.838s-1.098 0.907-1.849 1.197c-0.567 0.22-1.419 0.48-2.988 0.551-1.696 0.077-2.206 0.093-6.502 0.093s-4.806-0.017-6.502-0.093c-1.569-0.072-2.42-0.333-2.988-0.552-0.751-0.29-1.287-0.637-1.85-1.197s-0.912-1.092-1.204-1.839c-0.22-0.563-0.483-1.41-0.554-2.97-0.077-1.687-0.093-2.193-0.093-6.466s0.015-4.777 0.093-6.463c0.072-1.56 0.334-2.407 0.554-2.971 0.292-0.747 0.641-1.28 1.204-1.84s1.1-0.907 1.85-1.197c0.567-0.22 1.419-0.48 2.988-0.552 1.484-0.067 2.060-0.087 5.059-0.090v0.004zM24.681 5.54c-1.066 0-1.931 0.859-1.931 1.919s0.865 1.92 1.931 1.92 1.931-0.86 1.931-1.92c0-1.060-0.865-1.92-1.931-1.92v0.001zM16.092 7.783c-4.564 0-8.263 3.679-8.263 8.217s3.7 8.215 8.263 8.215c4.563 0 8.262-3.677 8.262-8.215s-3.699-8.217-8.262-8.217h0zM16.092 10.667c2.962 0 5.364 2.388 5.364 5.333s-2.402 5.333-5.364 5.333c-2.962 0-5.364-2.388-5.364-5.333s2.401-5.333 5.364-5.333z"></path>
</svg>
