<!-- Generated by IcoMoon.io -->
<svg version="1.1" xmlns="http://www.w3.org/2000/svg" width="36" height="32" viewBox="0 0 36 32">
<title>like</title>
<path d="M34.402 6.959c-0.531-1.229-1.296-2.342-2.252-3.277-0.957-0.938-2.086-1.684-3.325-2.197-1.284-0.534-2.662-0.807-4.053-0.804-1.951 0-3.855 0.534-5.51 1.544-0.396 0.241-0.772 0.507-1.128 0.796-0.356-0.289-0.732-0.554-1.128-0.796-1.655-1.009-3.559-1.544-5.51-1.544-1.405 0-2.767 0.269-4.053 0.804-1.243 0.515-2.363 1.255-3.325 2.197-0.958 0.935-1.723 2.048-2.252 3.277-0.55 1.279-0.831 2.636-0.831 4.034 0 1.318 0.269 2.692 0.804 4.089 0.447 1.168 1.089 2.379 1.908 3.602 1.298 1.936 3.084 3.954 5.3 6.001 3.673 3.392 7.311 5.736 7.465 5.831l0.938 0.602c0.416 0.265 0.95 0.265 1.366 0l0.938-0.602c0.154-0.099 3.788-2.438 7.465-5.831 2.217-2.047 4.002-4.065 5.3-6.001 0.819-1.223 1.465-2.434 1.908-3.602 0.534-1.397 0.804-2.771 0.804-4.089 0.004-1.397-0.277-2.755-0.827-4.034zM18.133 27.986c0 0-14.092-9.029-14.092-16.993 0-4.034 3.337-7.303 7.454-7.303 2.894 0 5.403 1.615 6.638 3.974 1.235-2.359 3.745-3.974 6.638-3.974 4.117 0 7.454 3.27 7.454 7.303 0 7.964-14.092 16.993-14.092 16.993z"></path>
</svg>
