<!-- Generated by IcoMoon.io -->
<svg version="1.1" xmlns="http://www.w3.org/2000/svg" width="33" height="32" viewBox="0 0 33 32">
<title>linkedin</title>
<path d="M7.895 3.642c-0.046-2.067-1.524-3.642-3.925-3.642s-3.97 1.575-3.97 3.642c0 2.025 1.523 3.645 3.879 3.645h0.045c2.447 0 3.971-1.62 3.971-3.645zM7.433 10.165h-7.018v21.086h7.018v-21.086zM24.662 9.67c4.618 0 8.080 3.014 8.080 9.491l-0 12.090h-7.018v-11.281c0-2.834-1.016-4.767-3.556-4.767-1.939 0-3.094 1.303-3.601 2.562-0.186 0.451-0.231 1.080-0.231 1.71v11.776h-7.019c0 0 0.092-19.108 0-21.086h7.019v2.987c0.931-1.436 2.6-3.482 6.326-3.482z"></path>
</svg>
