<!-- Generated by IcoMoon.io -->
<svg version="1.1" xmlns="http://www.w3.org/2000/svg" width="32" height="32" viewBox="0 0 32 32">
<title>link</title>
<path d="M17.72 12.387l-5.333 5.333c-0.125 0.124-0.224 0.271-0.292 0.434s-0.103 0.337-0.103 0.513c0 0.176 0.035 0.35 0.103 0.513s0.167 0.31 0.292 0.434c0.124 0.125 0.271 0.224 0.434 0.292s0.337 0.103 0.513 0.103c0.176 0 0.35-0.035 0.513-0.103s0.31-0.167 0.434-0.292l5.333-5.333c0.251-0.251 0.392-0.592 0.392-0.947s-0.141-0.696-0.392-0.947c-0.251-0.251-0.591-0.392-0.947-0.392s-0.696 0.141-0.947 0.392z"></path>
<path d="M16.373 23.2l-1.707 1.693c-0.958 0.987-2.246 1.587-3.618 1.686s-2.733-0.312-3.822-1.152c-0.576-0.474-1.045-1.064-1.379-1.731s-0.523-1.397-0.557-2.142c-0.034-0.745 0.089-1.489 0.36-2.184s0.686-1.325 1.216-1.849l1.893-1.907c0.125-0.124 0.224-0.271 0.292-0.434s0.103-0.337 0.103-0.513c0-0.176-0.035-0.35-0.103-0.513s-0.167-0.31-0.292-0.434c-0.124-0.125-0.271-0.224-0.434-0.292s-0.337-0.103-0.513-0.103c-0.176 0-0.35 0.035-0.513 0.103s-0.31 0.167-0.434 0.292l-1.693 1.707c-1.426 1.381-2.303 3.233-2.468 5.212s0.395 3.95 1.574 5.548c0.7 0.908 1.585 1.656 2.596 2.196s2.126 0.858 3.27 0.933 2.291-0.093 3.364-0.495c1.074-0.401 2.050-1.027 2.863-1.835l1.893-1.893c0.251-0.251 0.392-0.592 0.392-0.947s-0.141-0.696-0.392-0.947c-0.251-0.251-0.592-0.392-0.947-0.392s-0.696 0.141-0.947 0.392v0zM26.213 4.293c-1.609-1.191-3.596-1.756-5.591-1.59s-3.861 1.054-5.249 2.496l-1.44 1.467c-0.165 0.12-0.302 0.273-0.404 0.449s-0.165 0.372-0.187 0.574c-0.021 0.202 0 0.407 0.063 0.601s0.165 0.372 0.301 0.523c0.124 0.125 0.271 0.224 0.434 0.292s0.337 0.103 0.513 0.103c0.176 0 0.35-0.035 0.513-0.103s0.31-0.167 0.434-0.292l1.733-1.747c0.953-0.992 2.239-1.595 3.611-1.693s2.731 0.315 3.816 1.16c0.58 0.474 1.054 1.066 1.39 1.735s0.527 1.403 0.561 2.151c0.034 0.748-0.090 1.496-0.364 2.193s-0.692 1.329-1.227 1.854l-1.893 1.907c-0.125 0.124-0.224 0.271-0.292 0.434s-0.103 0.337-0.103 0.513c0 0.176 0.035 0.35 0.103 0.513s0.167 0.31 0.292 0.434c0.124 0.125 0.271 0.224 0.434 0.292s0.337 0.103 0.513 0.103 0.35-0.035 0.513-0.103c0.162-0.068 0.31-0.167 0.434-0.292l1.893-1.893c0.806-0.813 1.429-1.788 1.829-2.861s0.568-2.217 0.493-3.36c-0.076-1.142-0.393-2.255-0.931-3.265s-1.285-1.894-2.191-2.594v0z"></path>
</svg>
