<!-- Generated by IcoMoon.io -->
<svg version="1.1" xmlns="http://www.w3.org/2000/svg" width="32" height="32" viewBox="0 0 32 32">
<title>ln-share</title>
<path fill="#acacac" d="M27.306 27.311c6.247-6.247 6.247-16.375 0-22.622s-16.375-6.247-22.622 0c-6.247 6.247-6.247 16.375 0 22.622s16.375 6.247 22.622 0z"></path>
<path fill="#fff" d="M7.102 12.787h3.601v12.097h-3.601v-12.097zM8.881 6.646c1.203 0 2.177 0.982 2.177 2.178 0 1.203-0.982 2.177-2.177 2.177-1.203 0-2.135-0.982-2.135-2.177s0.932-2.178 2.135-2.178zM12.837 12.787h3.558v1.694c0.754-1.11 2-1.822 3.423-1.822h0.982c2.27 0 4.092 1.871 4.092 4.092v8.133h-3.558v-6.54c-0.043-1.38-0.982-2.448-2.355-2.448-1.38 0-2.533 1.067-2.583 2.448v6.54h-3.558v-12.097z"></path>
</svg>
