<!-- Generated by IcoMoon.io -->
<svg version="1.1" xmlns="http://www.w3.org/2000/svg" width="32" height="32" viewBox="0 0 32 32">
<title>magnify</title>
<path d="M32 30.74l-8.899-8.901c2.007-2.299 3.231-5.326 3.231-8.639 0-7.271-5.895-13.166-13.166-13.166s-13.166 5.895-13.166 13.166c0 7.271 5.895 13.166 13.166 13.166 0.005 0 0.010 0 0.015 0h-0.001c3.316 0 8.658-3.264 8.658-3.264l8.899 8.899zM1.784 13.183c0-0 0-0.001 0-0.001 0-6.295 5.103-11.398 11.398-11.398s11.398 5.103 11.398 11.398c0 6.295-5.103 11.398-11.398 11.398-0 0-0.001 0-0.001 0h0c-6.291-0.008-11.389-5.105-11.397-11.396v-0.001z"></path>
</svg>
