<!-- Generated by IcoMoon.io -->
<svg version="1.1" xmlns="http://www.w3.org/2000/svg" width="32" height="32" viewBox="0 0 32 32">
<title>mail</title>
<path d="M31.298 5.227l0.049-0.047-0.515-0.526c-0.043-0.047-0.088-0.092-0.133-0.137l-0.549-0.56-0.069 0.070c-0.647-0.433-1.442-0.692-2.298-0.693h-23.561c-0.857 0.002-1.653 0.26-2.316 0.703l0.015-0.010-0.068-0.068-0.549 0.561c-0.047 0.043-0.090 0.088-0.133 0.133l-0.517 0.528 0.051 0.049c-0.441 0.652-0.704 1.456-0.704 2.321 0 0.002 0 0.004 0 0.005v-0 16.828c0.003 2.33 1.891 4.218 4.221 4.221h23.561c2.33-0.003 4.218-1.891 4.221-4.221v-16.829c0-0.001 0-0.001 0-0.002 0-0.868-0.264-1.673-0.715-2.342l0.009 0.015zM4.221 5.045h23.561c0.372 0.002 0.724 0.087 1.039 0.237l-0.015-0.006-11.027 10.805c-0.46 0.442-1.086 0.715-1.776 0.715s-1.316-0.272-1.777-0.716l0.001 0.001-11.031-10.806c0.301-0.144 0.653-0.229 1.025-0.231h0.001zM30.294 24.384c-0.002 1.386-1.126 2.508-2.511 2.509h-23.561c-1.386-0.001-2.509-1.123-2.511-2.509v-16.828c0.006-0.395 0.104-0.767 0.273-1.095l-0.006 0.014 11.055 10.829c0.768 0.742 1.816 1.199 2.97 1.199s2.202-0.457 2.971-1.2l-0.001 0.001 11.056-10.829c0.163 0.315 0.261 0.686 0.267 1.080l0 0.002z"></path>
</svg>
