<!-- Generated by IcoMoon.io -->
<svg version="1.1" xmlns="http://www.w3.org/2000/svg" width="22" height="32" viewBox="0 0 22 32">
<title>phone</title>
<path d="M4.22 32c-2.33-0.004-4.218-1.892-4.22-4.223v-23.557c0.003-2.33 1.89-4.218 4.22-4.221h13.461c2.33 0.003 4.218 1.891 4.22 4.22v23.557c-0.002 2.33-1.89 4.219-4.22 4.223h-0zM1.71 4.221v23.557c0.002 1.386 1.125 2.509 2.511 2.511h13.461c1.386-0.002 2.509-1.125 2.511-2.511v-23.557c-0.002-1.385-1.125-2.508-2.511-2.508h-13.461c-1.386 0.001-2.509 1.123-2.511 2.508v0zM7.365 5.647v-1.712h7.178v1.712z"></path>
</svg>
