<!-- Generated by IcoMoon.io -->
<svg version="1.1" xmlns="http://www.w3.org/2000/svg" width="34" height="32" viewBox="0 0 34 32">
<title>reply</title>
<path d="M0.267 6.533c0-1.591 0.632-3.117 1.757-4.243s2.651-1.757 4.243-1.757h21.6c1.591 0 3.117 0.632 4.243 1.757s1.757 2.651 1.757 4.243v12c0 0.788-0.155 1.568-0.457 2.296s-0.743 1.389-1.301 1.946c-0.557 0.557-1.219 0.999-1.946 1.301s-1.508 0.457-2.296 0.457h-9.149l-7.351 6.432c-0.34 0.297-0.759 0.49-1.206 0.556s-0.903 0.002-1.315-0.185c-0.411-0.187-0.76-0.488-1.005-0.868s-0.375-0.822-0.375-1.274v-4.661h-1.2c-1.591 0-3.117-0.632-4.243-1.757s-1.757-2.651-1.757-4.243v-12zM6.267 2.933c-0.955 0-1.87 0.379-2.546 1.054s-1.054 1.591-1.054 2.546v12c0 0.955 0.379 1.87 1.054 2.546s1.591 1.054 2.546 1.054h3.6v6.955l7.949-6.955h10.051c0.955 0 1.87-0.379 2.546-1.054s1.055-1.591 1.055-2.546v-12c0-0.955-0.379-1.87-1.055-2.546s-1.591-1.054-2.546-1.054h-21.6z"></path>
</svg>
