<!-- Generated by IcoMoon.io -->
<svg version="1.1" xmlns="http://www.w3.org/2000/svg" width="32" height="32" viewBox="0 0 32 32">
<title>share</title>
<path d="M26.069 20.131c-1.412 0.007-2.704 0.51-3.714 1.344l0.010-0.008-9.583-5.466 9.583-5.469s2.297 1.336 3.704 1.336c0.006 0 0.014 0 0.021 0 3.289 0 5.956-2.666 5.956-5.956s-2.666-5.956-5.956-5.956c-3.289 0-5.956 2.666-5.956 5.956 0 1.214 0.363 2.344 0.988 3.286l-0.014-0.022-9.438 5.386c-0.666-2.601-2.989-4.493-5.755-4.493-3.276 0-5.932 2.656-5.932 5.932s2.656 5.932 5.932 5.932c2.765 0 5.088-1.892 5.746-4.452l0.009-0.041 9.438 5.387c-0.601 0.912-0.959 2.030-0.959 3.232 0 3.273 2.653 5.926 5.926 5.926s5.926-2.653 5.926-5.926c0-3.273-2.653-5.926-5.926-5.926-0.002 0-0.005 0-0.007 0h0zM26.069 1.802c2.282 0.001 4.131 1.851 4.131 4.132s-1.85 4.132-4.132 4.132c-2.282 0-4.132-1.849-4.132-4.131v-0c0.002-2.282 1.852-4.132 4.134-4.134h0zM5.933 20.131c-2.28-0.002-4.128-1.851-4.128-4.131 0-2.282 1.85-4.131 4.131-4.131s4.131 1.85 4.131 4.131c0 0 0 0.001 0 0.001v-0c-0.004 2.281-1.853 4.128-4.134 4.13h-0zM26.069 30.199c-2.283-0-4.133-1.851-4.133-4.133s1.851-4.133 4.133-4.133 4.133 1.851 4.133 4.133v0c-0.002 2.282-1.852 4.132-4.134 4.133h-0z"></path>
</svg>
