<!-- Generated by IcoMoon.io -->
<svg version="1.1" xmlns="http://www.w3.org/2000/svg" width="32" height="32" viewBox="0 0 32 32">
<title>shrug</title>
<path d="M0 13.8h2.418v-0.726h-2.418zM5.671 18.717h0.93l-1.623-5.976h-0.93zM7.022 18.696h3.675v-0.659h-3.675zM12.163 19.26h0.856c-0.567-0.93-0.903-2.056-0.903-3.26s0.336-2.329 0.919-3.288l-0.016 0.028h-0.856c-0.612 0.919-0.984 2.044-1.005 3.254l-0 0.005c0.021 1.216 0.393 2.341 1.019 3.282l-0.014-0.023zM15.939 12.971l-0.638 0.374c0.197 0.278 0.394 0.584 0.584 0.917 0.109 0.19 0.278 0.503 0.516 0.951l0.632-0.407c-0.366-0.713-0.729-1.313-1.128-1.886l0.035 0.053zM18.587 13.23c-0.217 1.161-0.598 2.098-1.127 2.805-0.598 0.788-1.439 1.365-2.52 1.745l0.475 0.659c1.127-0.377 2.064-1.070 2.733-1.975l0.011-0.015q0.866-1.213 1.216-3.090zM14.357 13.468l-0.645 0.401c0.197 0.278 0.394 0.591 0.591 0.93 0.17 0.285 0.34 0.598 0.503 0.924l0.652-0.387c-0.363-0.725-0.729-1.337-1.134-1.919l0.034 0.051zM20.075 19.26h0.862c0.612-0.919 0.984-2.044 1.005-3.254l0-0.005c-0.021-1.216-0.393-2.341-1.019-3.282l0.014 0.023h-0.862c0.571 0.929 0.91 2.055 0.91 3.26s-0.339 2.33-0.926 3.287l0.016-0.027zM22.403 18.696h3.674v-0.659h-3.674zM26.498 18.717h0.93l1.623-5.976h-0.93zM29.583 13.8h2.417v-0.726h-2.417z"></path>
</svg>
