<!-- Generated by IcoMoon.io -->
<svg version="1.1" xmlns="http://www.w3.org/2000/svg" width="32" height="32" viewBox="0 0 32 32">
<title>social_instagram</title>
<path d="M15.968 31.995c-4.374 0-4.885-0.021-6.584-0.099-1.407-0.047-2.734-0.335-3.958-0.825l0.079 0.028c-2.145-0.855-3.812-2.523-4.646-4.614l-0.019-0.055c-0.445-1.149-0.716-2.478-0.745-3.867l-0-0.013c-0.097-1.701-0.097-2.257-0.097-6.588 0-4.393 0.021-4.897 0.099-6.584 0.027-1.4 0.299-2.729 0.774-3.956l-0.027 0.079c0.853-2.144 2.521-3.809 4.612-4.639l0.055-0.019c1.148-0.448 2.476-0.719 3.864-0.745l0.011-0c1.694-0.097 2.25-0.097 6.579-0.097 4.395 0 4.897 0.021 6.574 0.097 1.406 0.026 2.74 0.297 3.974 0.772l-0.080-0.027c2.148 0.849 3.819 2.514 4.655 4.603l0.020 0.055c0.451 1.165 0.722 2.513 0.745 3.922l0 0.010c0.099 1.703 0.099 2.257 0.099 6.586s-0.026 4.918-0.099 6.576c-0.029 1.402-0.3 2.732-0.772 3.962l0.027-0.080c-0.855 2.148-2.525 3.817-4.619 4.65l-0.055 0.019c-1.148 0.448-2.476 0.719-3.864 0.745l-0.011 0c-1.691 0.099-2.254 0.099-6.588 0.099zM15.907 2.799c-4.329 0-4.788 0.019-6.475 0.097v0c-1.067 0.013-2.083 0.215-3.022 0.574l0.060-0.020c-1.41 0.547-2.507 1.638-3.049 3.009l-0.013 0.036c-0.339 0.888-0.541 1.915-0.554 2.987l-0 0.006c-0.090 1.722-0.090 2.174-0.090 6.484s0.014 4.786 0.092 6.484c0.016 1.068 0.218 2.083 0.574 3.023l-0.020-0.061c0.557 1.398 1.647 2.482 3.013 3.018l0.036 0.012c0.879 0.336 1.895 0.536 2.956 0.549l0.006 0c1.717 0.099 2.169 0.099 6.484 0.099 4.358 0 4.807-0.021 6.484-0.099 1.067-0.013 2.083-0.213 3.022-0.569l-0.061 0.020c1.395-0.556 2.48-1.64 3.022-2.999l0.013-0.036c0.339-0.889 0.541-1.916 0.553-2.989l0-0.005h0.021c0.076-1.694 0.076-2.148 0.076-6.484s-0.021-4.814-0.097-6.484c-0.016-1.067-0.218-2.082-0.574-3.021l0.020 0.061c-0.553-1.398-1.638-2.484-2.999-3.025l-0.036-0.013c-0.879-0.339-1.896-0.541-2.959-0.554l-0.005-0c-1.715-0.097-2.162-0.097-6.484-0.097zM15.968 24.156v0c-4.525-0.003-8.192-3.672-8.192-8.197 0-4.527 3.67-8.197 8.197-8.197s8.197 3.67 8.197 8.197c0 0.002 0 0.003 0 0.005v-0c-0.003 4.525-3.672 8.192-8.197 8.192-0.002 0-0.003 0-0.005 0h0zM15.968 10.624c-0.001 0-0.002 0-0.002 0-2.94 0-5.323 2.383-5.323 5.323s2.383 5.323 5.323 5.323c2.94 0 5.323-2.383 5.323-5.323v0c-0.005-2.935-2.385-5.312-5.32-5.313h-0zM24.484 9.368v0c-1.056-0.003-1.911-0.86-1.911-1.916 0-1.058 0.858-1.916 1.916-1.916s1.916 0.858 1.916 1.916c0 0.001 0 0.002 0 0.003v-0c-0.004 1.058-0.863 1.914-1.921 1.914-0.001 0-0.002 0-0.003 0h0z"></path>
</svg>
