<!-- Generated by IcoMoon.io -->
<svg version="1.1" xmlns="http://www.w3.org/2000/svg" width="32" height="32" viewBox="0 0 32 32">
<title>social_twitter</title>
<path d="M30.999 3.534c-1.195 0.722-2.586 1.272-4.068 1.572l-0.084 0.014c-1.197-1.264-2.887-2.050-4.761-2.050-3.62 0-6.554 2.934-6.554 6.554 0 0.519 0.060 1.024 0.174 1.508l-0.009-0.044c-5.447-0.281-10.238-2.869-13.451-6.797l-0.026-0.033c-0.556 0.943-0.884 2.077-0.884 3.288 0 2.26 1.144 4.253 2.884 5.431l0.023 0.015c-1.093-0.037-2.108-0.338-2.994-0.841l0.032 0.017v0.083c0.002 3.154 2.234 5.787 5.206 6.404l0.042 0.007c-0.516 0.146-1.108 0.23-1.72 0.23-0.436 0-0.863-0.043-1.275-0.124l0.042 0.007c0.862 2.618 3.26 4.485 6.102 4.542l0.007 0c-2.23 1.744-5.073 2.797-8.163 2.797-0.536 0-1.065-0.032-1.585-0.093l0.063 0.006c2.837 1.843 6.308 2.938 10.034 2.938 10.187 0 18.462-8.189 18.601-18.343l0-0.013v-0.254c0-0.283-0.006-0.564-0.019-0.846 1.285-0.935 2.369-2.056 3.235-3.335l0.030-0.047c-1.093 0.499-2.362 0.861-3.692 1.024l-0.063 0.006c1.353-0.819 2.369-2.078 2.861-3.574l0.013-0.046z"></path>
</svg>
