<!-- Generated by IcoMoon.io -->
<svg version="1.1" xmlns="http://www.w3.org/2000/svg" width="32" height="32" viewBox="0 0 32 32">
<title>social_linkedin</title>
<path d="M17.784 32h-7.115v-21.339h7.112v3.555c1.478-1.872 3.728-3.078 6.261-3.134l0.009-0c4.401 0.030 7.958 3.605 7.958 8.011 0 0.005 0 0.009 0 0.014v-0.001 12.894h-7.114v-12.003c-0.296-1.96-1.964-3.447-3.982-3.458h-0.010c-1.738 0.056-3.127 1.478-3.127 3.225 0 0.036 0.001 0.071 0.002 0.107l-0-0.005 0.007 0.131v12.003zM7.115 32h-7.115v-21.339h7.115zM3.557 7.103c-1.961-0.002-3.551-1.592-3.551-3.554 0-1.963 1.591-3.554 3.554-3.554s3.554 1.591 3.554 3.554c0 0.981-0.398 1.87-1.041 2.513v0c-0.643 0.643-1.531 1.041-2.513 1.041-0.001 0-0.003 0-0.004 0h0z"></path>
</svg>
