<!-- Generated by IcoMoon.io -->
<svg version="1.1" xmlns="http://www.w3.org/2000/svg" width="32" height="32" viewBox="0 0 32 32">
<title>social_whatsapp</title>
<path d="M27.215 4.643c-2.871-2.868-6.835-4.642-11.214-4.642-8.763 0-15.866 7.104-15.866 15.866 0 2.914 0.786 5.645 2.157 7.992l-0.041-0.075-2.251 8.217 8.411-2.208c2.186 1.215 4.794 1.93 7.569 1.93 0.004 0 0.008 0 0.011 0h0.006c0 0 0.001 0 0.001 0 8.79 0 15.925-7.084 16.009-15.854l0-0.008c-0.048-4.399-1.873-8.363-4.79-11.215l-0.003-0.003zM15.997 29.049c-0.004 0-0.009 0-0.014 0-2.472 0-4.786-0.682-6.762-1.868l0.060 0.033-0.477-0.287-4.987 1.308 1.329-4.865-0.314-0.499c-1.205-1.954-1.919-4.322-1.919-6.857 0-7.295 5.914-13.209 13.209-13.209 7.241 0 13.121 5.826 13.208 13.046l0 0.008c-0.079 7.302-6.017 13.191-13.329 13.191-0 0-0.001 0-0.001 0h0zM23.229 19.176c-0.393-0.203-2.343-1.157-2.707-1.286s-0.631-0.203-0.895 0.203-1.021 1.286-1.256 1.557-0.463 0.305-0.856 0.102c-2.313-0.939-4.178-2.584-5.37-4.664l-0.028-0.053c-0.405-0.701 0.407-0.651 1.168-2.165 0.043-0.091 0.069-0.198 0.069-0.31 0-0.141-0.040-0.272-0.108-0.384l0.002 0.003c-0.102-0.203-0.893-2.151-1.22-2.947-0.321-0.773-0.649-0.664-0.893-0.68s-0.493-0.014-0.757-0.014c-0.421 0.012-0.796 0.2-1.056 0.491l-0.001 0.001c-0.859 0.814-1.394 1.964-1.394 3.238 0 0.024 0 0.048 0.001 0.072l-0-0.004c0.139 1.565 0.725 2.972 1.626 4.118l-0.013-0.017c0.203 0.264 2.793 4.269 6.775 5.986 2.513 1.087 3.5 1.18 4.757 0.994 1.141-0.238 2.089-0.927 2.664-1.869l0.010-0.018c0.174-0.39 0.275-0.846 0.275-1.325 0-0.197-0.017-0.39-0.050-0.578l0.003 0.020c-0.090-0.179-0.353-0.28-0.746-0.472z"></path>
</svg>
