<!-- Generated by IcoMoon.io -->
<svg version="1.1" xmlns="http://www.w3.org/2000/svg" width="32" height="32" viewBox="0 0 32 32">
<title>tagcross</title>
<path d="M27.779 5.067h-17.081c-1.193 0.003-2.27 0.499-3.039 1.294l-0.001 0.001-6.423 6.672c-0.763 0.764-1.235 1.818-1.235 2.983 0 1.16 0.468 2.21 1.225 2.973l-0-0 6.435 6.687c0.77 0.796 1.847 1.292 3.039 1.295h17.081c2.33-0.004 4.218-1.893 4.22-4.223v-13.462c-0.003-2.33-1.891-4.218-4.221-4.221h-0zM30.29 22.75c-0.002 1.386-1.125 2.51-2.511 2.511h-17.081c-0.709-0.002-1.35-0.297-1.807-0.769l-0.001-0.001-6.446-6.698c-0.456-0.454-0.737-1.081-0.737-1.775 0-0.699 0.286-1.331 0.748-1.785l0-0 6.435-6.686c0.457-0.475 1.098-0.77 1.808-0.771h17.081c1.386 0.002 2.51 1.125 2.511 2.511v0z"></path>
<path d="M24.415 11.447l-3.366 3.366-3.366-3.366-1.207 1.208 3.364 3.366-3.364 3.366 1.207 1.207 3.366-3.364 3.366 3.364 1.207-1.207-3.363-3.366 3.363-3.366z"></path>
</svg>
