<!-- Generated by IcoMoon.io -->
<svg version="1.1" xmlns="http://www.w3.org/2000/svg" width="32" height="32" viewBox="0 0 32 32">
<title>tw-share</title>
<path fill="#acacac" d="M27.306 27.311c6.247-6.247 6.247-16.375 0-22.622s-16.375-6.247-22.622 0c-6.247 6.247-6.247 16.375 0 22.622s16.375 6.247 22.622 0z"></path>
<path fill="#fff" d="M16.174 13.157c-0.79-4.149 4.205-6.625 7.144-3.629 0 0 1.316-0.37 2.469-1.103 0 0-0.42 1.416-1.836 2.313 0 0 1.58-0.213 2.263-0.633 0 0-0.683 1.416-1.943 1.943 0.683 9.521-9.564 15.299-17.868 10.567 0 0 4.099 0.213 5.835-1.786 0 0-2.526 0.213-3.786-2.839 0 0 0.946 0.37 1.893-0.107 0 0-2.946-0.47-3.209-3.992 0 0 0.946 0.733 2 0.47 0 0-3.259-1.943-1.416-5.465-0.007 0.007 3.465 4.419 8.454 4.262z"></path>
</svg>
