<!-- Generated by IcoMoon.io -->
<svg version="1.1" xmlns="http://www.w3.org/2000/svg" width="40" height="32" viewBox="0 0 40 32">
<title>twitter</title>
<path d="M18.802 8.512l0.084 1.384-1.399-0.169c-5.092-0.65-9.541-2.853-13.318-6.553l-1.847-1.836-0.476 1.356c-1.007 3.022-0.364 6.214 1.735 8.361 1.119 1.186 0.867 1.356-1.063 0.65-0.671-0.226-1.259-0.395-1.315-0.311-0.196 0.198 0.476 2.768 1.007 3.785 0.727 1.412 2.21 2.797 3.833 3.616l1.371 0.65-1.623 0.028c-1.567 0-1.623 0.028-1.455 0.621 0.56 1.836 2.77 3.785 5.232 4.633l1.735 0.593-1.511 0.904c-2.238 1.299-4.868 2.034-7.498 2.090-1.259 0.028-2.294 0.141-2.294 0.226 0 0.282 3.413 1.864 5.4 2.486 5.96 1.836 13.038 1.045 18.354-2.090 3.777-2.232 7.554-6.666 9.317-10.96 0.951-2.288 1.903-6.469 1.903-8.474 0-1.299 0.084-1.469 1.651-3.022 0.923-0.904 1.791-1.893 1.959-2.175 0.28-0.537 0.252-0.537-1.175-0.056-2.378 0.847-2.714 0.734-1.539-0.537 0.867-0.904 1.903-2.542 1.903-3.022 0-0.085-0.42 0.056-0.895 0.311-0.504 0.282-1.623 0.706-2.462 0.96l-1.511 0.48-1.371-0.932c-0.755-0.508-1.819-1.073-2.378-1.243-1.427-0.395-3.609-0.339-4.896 0.113-3.497 1.271-5.708 4.548-5.456 8.135z"></path>
</svg>
