<!-- Generated by IcoMoon.io -->
<svg version="1.1" xmlns="http://www.w3.org/2000/svg" width="32" height="32" viewBox="0 0 32 32">
<title>wh-share</title>
<path fill="#acacac" d="M27.306 27.311c6.247-6.247 6.247-16.375 0-22.622s-16.375-6.247-22.622 0c-6.247 6.247-6.247 16.375 0 22.622s16.375 6.247 22.622 0z"></path>
<path fill="#fff" d="M12.403 11.378c0.562-0.363 0.925-0.1 1.131 0.463l0.512 1.338c0 0 0.363 0.719-0.562 1.437-0.156 0.1-0.156 0.1-0.1 0.363 0.206 0.619 1.025 2.469 3.65 3.907 0.256 0.157 0.306 0.157 0.562-0.050 0.206-0.206 0.463-0.463 0.669-0.669 0.462-0.413 0.719-0.562 1.131-0.256 0.306 0.206 0.619 0.463 0.925 0.669 0.306 0.256 0.825 0.562 0.306 1.181l-0.462 0.562c-0.669 0.825-1.231 0.875-2.106 0.669-3.337-0.875-5.807-3.238-6.888-6.575-0.363-1.295 0.149-2.37 1.231-3.038zM15.996 5.878c5.6 0 10.119 4.519 10.119 10.119s-4.519 10.119-10.119 10.119c-1.544 0-2.982-0.306-4.262-0.925l-5.394 0.925 0.719-5.337-0.050-0.1c-0.719-1.388-1.131-2.982-1.131-4.675 0-5.607 4.519-10.126 10.119-10.126zM9.627 23.859l2.313-0.413c1.231 0.669 2.569 1.025 4.056 1.025 4.675 0 8.475-3.8 8.475-8.475s-3.8-8.475-8.475-8.475c-4.675 0-8.475 3.8-8.475 8.475 0 1.694 0.512 3.238 1.338 4.576l-0.1 0.768-0.206 1.544-0.157 1.181 1.231-0.206z"></path>
</svg>
