<!-- Generated by IcoMoon.io -->
<svg version="1.1" xmlns="http://www.w3.org/2000/svg" width="45" height="32" viewBox="0 0 45 32">
<title>youtube</title>
<path fill="#3f3f3f" d="M44.077 6.903c0 0-0.435-3.135-1.77-4.516-1.693-1.813-3.591-1.821-4.461-1.927-6.23-0.461-15.576-0.461-15.576-0.461h-0.019c0 0-9.345 0-15.576 0.461-0.871 0.105-2.767 0.114-4.462 1.927-1.334 1.381-1.768 4.516-1.768 4.516s-0.445 3.682-0.445 7.363v3.452c0 3.682 0.445 7.363 0.445 7.363s0.434 3.135 1.768 4.516c1.695 1.813 3.919 1.756 4.91 1.945 3.562 0.35 15.137 0.458 15.137 0.458s9.355-0.014 15.585-0.475c0.87-0.107 2.767-0.115 4.461-1.928 1.334-1.381 1.77-4.516 1.77-4.516s0.445-3.681 0.445-7.363v-3.452c0-3.681-0.445-7.363-0.445-7.363z"></path>
<path fill="#fff" d="M16.697 21.131l-0.001-12.783 12.029 6.414-12.028 6.37z"></path>
</svg>
